<svg width="750" height="450" viewBox="0 0 750 450" fill="none" xmlns="http://www.w3.org/2000/svg"><rect width="750" height="450" rx="12" fill="#E2F1FF"/><path fill-rule="evenodd" clip-rule="evenodd" d="m511.178 77.086 12.441 7.183-12.441 7.182v-5.938H394.119a1.244 1.244 0 0 1 0-2.488h117.059v-5.94Zm-242.5 0 12.441 7.183-12.441 7.182v-5.938h-90.559a1.244 1.244 0 0 1 0-2.488h90.559v-5.94Z" fill="#000"/><path d="M380.359 304.827c0 24.024-19.475 43.5-43.5 43.5-24.024 0-43.5-19.476-43.5-43.5 0-24.025 19.476-43.5 43.5-43.5 24.025 0 43.5 19.475 43.5 43.5Z" fill="#3E5FFF"/><path d="M334.918 285.547a4.977 4.977 0 0 1 3.884 0l13.727 5.823c1.71.725 2.991 2.409 2.976 4.375-.039 7.776-3.209 21.876-16.594 28.286a4.805 4.805 0 0 1-4.102 0c-13.389-6.41-16.556-20.51-16.594-28.286-.01-1.966 1.268-3.65 2.975-4.375l13.728-5.823Zm2.913 2.289a2.489 2.489 0 0 0-1.942 0l-13.728 5.827c-.877.365-1.465 1.196-1.46 2.136.036 7.303 3.055 20.183 15.18 25.986a2.27 2.27 0 0 0 1.958 0c12.127-5.803 15.149-18.683 15.18-25.986.008-.94-.583-1.771-1.461-2.136l-13.727-5.827Z" fill="#fff"/><path d="M455.905 386.213v1.278h-5.088v-1.278h5.088Zm-3.605-2.352h1.509v9.358c0 .426.061.745.185.959.128.208.29.349.486.421.2.069.411.103.633.103.166 0 .302-.009.409-.026l.255-.051.307 1.355a3.064 3.064 0 0 1-.428.115 3.132 3.132 0 0 1-.697.064c-.426 0-.844-.092-1.253-.275a2.495 2.495 0 0 1-1.01-.837c-.264-.375-.396-.848-.396-1.419v-9.767Zm-2.754 4.551-1.355.383a2.53 2.53 0 0 0-.378-.658 1.838 1.838 0 0 0-.664-.537c-.282-.141-.642-.211-1.081-.211-.6 0-1.101.139-1.502.416-.396.272-.594.62-.594 1.042 0 .375.136.671.409.888.273.217.699.398 1.278.543l1.458.358c.877.213 1.532.539 1.962.978.43.435.646.995.646 1.681 0 .563-.162 1.066-.486 1.509-.32.443-.767.793-1.343 1.048-.575.256-1.244.384-2.007.384-1.001 0-1.83-.218-2.486-.652-.656-.435-1.072-1.07-1.247-1.905l1.432-.358c.137.528.394.925.774 1.189.383.264.884.396 1.502.396.703 0 1.261-.149 1.675-.447.417-.303.626-.665.626-1.087a1.14 1.14 0 0 0-.358-.856c-.239-.235-.605-.41-1.099-.525l-1.637-.383c-.899-.213-1.559-.543-1.981-.991-.418-.452-.627-1.016-.627-1.694 0-.554.156-1.044.467-1.47.315-.426.743-.761 1.285-1.003.545-.243 1.163-.365 1.853-.365.972 0 1.735.213 2.289.639.558.427.954.989 1.189 1.688Zm-12.955 7.824c-.946 0-1.762-.209-2.448-.627a4.207 4.207 0 0 1-1.579-1.764c-.366-.758-.55-1.64-.55-2.646s.184-1.892.55-2.659c.371-.772.886-1.372 1.547-1.803.665-.434 1.44-.652 2.327-.652.511 0 1.016.085 1.514.256.499.17.953.447 1.362.831.409.379.735.882.978 1.508.243.627.364 1.398.364 2.314v.639h-7.568v-1.303h6.034c0-.554-.111-1.049-.332-1.483a2.511 2.511 0 0 0-.933-1.03c-.401-.251-.874-.377-1.419-.377-.601 0-1.121.149-1.56.448a2.945 2.945 0 0 0-1.004 1.15c-.234.473-.351.98-.351 1.522v.869c0 .741.128 1.37.383 1.886.26.511.62.901 1.081 1.169.46.265.995.397 1.604.397.396 0 .754-.056 1.074-.167a2.29 2.29 0 0 0 .837-.511c.235-.23.416-.516.544-.856l1.457.409a3.221 3.221 0 0 1-.774 1.304c-.362.37-.809.66-1.342.869-.533.204-1.131.307-1.796.307Zm-8.028-4.219v-5.804h1.509v9.818h-1.509v-1.662h-.102c-.23.499-.588.923-1.074 1.272-.486.345-1.1.518-1.841.518-.614 0-1.159-.134-1.636-.403-.478-.272-.853-.681-1.125-1.227-.273-.55-.409-1.242-.409-2.077v-6.239h1.508v6.136c0 .716.2 1.287.601 1.713.405.427.92.64 1.547.64.375 0 .756-.096 1.144-.288.392-.192.72-.486.984-.882.269-.396.403-.901.403-1.515Zm-10.097 7.696v-5.19h-.128a9.764 9.764 0 0 1-.473.677c-.205.269-.497.509-.876.723-.379.208-.884.313-1.515.313-.818 0-1.54-.207-2.167-.62-.626-.418-1.116-1.006-1.47-1.764-.354-.763-.53-1.665-.53-2.704 0-1.032.176-1.926.53-2.685.354-.758.846-1.344 1.477-1.758.63-.413 1.359-.62 2.186-.62.639 0 1.144.107 1.515.32.375.209.66.447.856.716.2.264.356.481.467.652h.179v-1.56h1.457v13.5h-1.508Zm-2.787-4.832c.605 0 1.116-.158 1.534-.473.417-.32.735-.761.952-1.324.218-.566.326-1.22.326-1.962 0-.733-.106-1.374-.319-1.924-.213-.554-.529-.984-.946-1.291-.418-.311-.934-.467-1.547-.467-.639 0-1.172.164-1.598.492-.422.324-.74.765-.953 1.324-.209.554-.313 1.176-.313 1.866 0 .699.107 1.334.32 1.905.217.567.537 1.018.958 1.355.427.332.955.499 1.586.499Zm-9.912 1.355c-.946 0-1.762-.209-2.448-.627a4.2 4.2 0 0 1-1.579-1.764c-.367-.758-.55-1.64-.55-2.646s.183-1.892.55-2.659c.37-.772.886-1.372 1.547-1.803.664-.434 1.44-.652 2.326-.652.512 0 1.017.085 1.515.256.499.17.953.447 1.362.831.409.379.735.882.978 1.508.243.627.364 1.398.364 2.314v.639h-7.568v-1.303h6.034c0-.554-.111-1.049-.332-1.483a2.514 2.514 0 0 0-.934-1.03c-.4-.251-.873-.377-1.419-.377-.601 0-1.12.149-1.559.448-.435.294-.77.677-1.004 1.15-.234.473-.351.98-.351 1.522v.869c0 .741.127 1.37.383 1.886.26.511.62.901 1.08 1.169.461.265.995.397 1.605.397.396 0 .754-.056 1.074-.167.323-.115.603-.285.837-.511.234-.23.415-.516.543-.856l1.458.409a3.244 3.244 0 0 1-.774 1.304c-.362.37-.809.66-1.342.869a4.993 4.993 0 0 1-1.796.307Zm-10.155-.205v-9.818h1.457v1.483h.102c.179-.486.503-.88.972-1.183a2.864 2.864 0 0 1 1.585-.453c.111 0 .25.002.416.006.166.004.292.011.377.019v1.534a4.15 4.15 0 0 0-.352-.057 3.436 3.436 0 0 0-.569-.045c-.477 0-.903.1-1.278.3a2.204 2.204 0 0 0-1.202 2.001v6.213h-1.508Zm-10.703.205c-.946 0-1.762-.209-2.448-.627a4.207 4.207 0 0 1-1.579-1.764c-.366-.758-.55-1.64-.55-2.646s.184-1.892.55-2.659c.371-.772.887-1.372 1.547-1.803.665-.434 1.44-.652 2.327-.652.511 0 1.016.085 1.515.256.498.17.952.447 1.361.831.409.379.735.882.978 1.508.243.627.365 1.398.365 2.314v.639h-7.569v-1.303h6.034c0-.554-.11-1.049-.332-1.483a2.505 2.505 0 0 0-.933-1.03c-.401-.251-.874-.377-1.419-.377-.601 0-1.121.149-1.56.448a2.934 2.934 0 0 0-1.003 1.15c-.235.473-.352.98-.352 1.522v.869c0 .741.128 1.37.384 1.886.259.511.62.901 1.08 1.169.46.265.995.397 1.604.397.396 0 .754-.056 1.074-.167a2.29 2.29 0 0 0 .837-.511c.235-.23.416-.516.544-.856l1.457.409a3.23 3.23 0 0 1-.773 1.304c-.363.37-.81.66-1.343.869-.532.204-1.131.307-1.796.307Zm-12.883-6.111v5.906h-1.508V382.94h1.508v4.807h.128c.23-.507.576-.91 1.036-1.208.464-.303 1.082-.454 1.854-.454.669 0 1.255.134 1.757.403.503.264.893.671 1.17 1.221.281.545.422 1.24.422 2.084v6.238h-1.509v-6.136c0-.78-.202-1.383-.607-1.809-.4-.431-.956-.646-1.668-.646-.494 0-.938.105-1.33.314a2.286 2.286 0 0 0-.92.914c-.222.4-.333.886-.333 1.457Zm-3.628-3.912v1.278h-5.088v-1.278h5.088Zm-3.605-2.352h1.508v9.358c0 .426.062.745.186.959a.955.955 0 0 0 .485.421c.201.069.412.103.633.103.166 0 .303-.009.409-.026l.256-.051.307 1.355a3.064 3.064 0 0 1-.428.115 3.138 3.138 0 0 1-.697.064c-.426 0-.844-.092-1.253-.275a2.482 2.482 0 0 1-1.01-.837c-.264-.375-.396-.848-.396-1.419v-9.767Zm-7.457 4.551-1.355.383a2.53 2.53 0 0 0-.378-.658 1.83 1.83 0 0 0-.664-.537c-.282-.141-.642-.211-1.081-.211-.6 0-1.101.139-1.502.416-.396.272-.594.62-.594 1.042 0 .375.136.671.409.888.273.217.699.398 1.278.543l1.458.358c.878.213 1.532.539 1.962.978.43.435.646.995.646 1.681 0 .563-.162 1.066-.486 1.509-.32.443-.767.793-1.342 1.048-.576.256-1.245.384-2.008.384-1.001 0-1.83-.218-2.486-.652-.656-.435-1.072-1.07-1.246-1.905l1.431-.358c.137.528.394.925.774 1.189.383.264.884.396 1.502.396.703 0 1.261-.149 1.675-.447.417-.303.626-.665.626-1.087a1.14 1.14 0 0 0-.358-.856c-.239-.235-.605-.41-1.099-.525l-1.637-.383c-.899-.213-1.559-.543-1.981-.991-.418-.452-.627-1.016-.627-1.694 0-.554.156-1.044.467-1.47.315-.426.744-.761 1.285-1.003.545-.243 1.163-.365 1.853-.365.972 0 1.735.213 2.289.639.558.427.954.989 1.189 1.688Zm-14.98 4.04-.025-1.867h.307l4.295-4.372h1.867l-4.577 4.628h-.128l-1.739 1.611Zm-1.406 3.579V382.94h1.509v13.091h-1.509Zm6.239 0-3.835-4.858 1.073-1.048 4.679 5.906h-1.917Zm-11.945.205c-.92 0-1.713-.218-2.378-.652-.665-.435-1.176-1.034-1.534-1.796-.358-.763-.537-1.635-.537-2.615 0-.997.183-1.877.55-2.64.371-.767.886-1.365 1.547-1.796.665-.434 1.44-.652 2.327-.652.69 0 1.312.128 1.866.384a3.564 3.564 0 0 1 1.362 1.074c.353.46.573.997.658 1.61h-1.509c-.115-.447-.37-.843-.767-1.189-.392-.349-.92-.524-1.585-.524-.588 0-1.104.154-1.547.461-.439.302-.782.73-1.029 1.284-.243.55-.364 1.196-.364 1.937 0 .759.119 1.419.358 1.982.243.562.584.999 1.022 1.31.444.311.963.467 1.56.467.392 0 .748-.069 1.068-.205a2.191 2.191 0 0 0 1.284-1.508h1.509a3.493 3.493 0 0 1-.633 1.566c-.332.46-.773.826-1.323 1.099-.546.269-1.18.403-1.905.403Zm-10.38 0c-.887 0-1.664-.211-2.333-.633-.665-.422-1.185-1.012-1.56-1.771-.371-.758-.556-1.645-.556-2.659 0-1.022.185-1.915.556-2.678.375-.763.895-1.355 1.56-1.777.669-.422 1.446-.633 2.333-.633.886 0 1.662.211 2.327.633.669.422 1.188 1.014 1.559 1.777.375.763.563 1.656.563 2.678 0 1.014-.188 1.901-.563 2.659-.371.759-.89 1.349-1.559 1.771-.665.422-1.441.633-2.327.633Zm0-1.355c.673 0 1.227-.173 1.662-.518.434-.345.756-.799.965-1.362a5.202 5.202 0 0 0 .313-1.828 5.26 5.26 0 0 0-.313-1.834 3.102 3.102 0 0 0-.965-1.375c-.435-.349-.989-.524-1.662-.524-.673 0-1.227.175-1.662.524-.435.35-.756.808-.965 1.375a5.26 5.26 0 0 0-.313 1.834c0 .657.104 1.266.313 1.828.209.563.53 1.017.965 1.362.435.345.989.518 1.662.518Zm-6.392-11.941v13.091h-1.508V382.94h1.508Zm-12.123 13.091V382.94h1.508v4.833h.128c.111-.171.264-.388.46-.652.2-.269.486-.507.857-.716.375-.213.882-.32 1.521-.32.827 0 1.555.207 2.186.62.631.414 1.123.999 1.477 1.758.353.759.53 1.653.53 2.685 0 1.039-.177 1.941-.53 2.704-.354.758-.844 1.346-1.471 1.764-.626.413-1.348.62-2.166.62-.631 0-1.136-.105-1.515-.313-.38-.214-.671-.454-.876-.723a9.427 9.427 0 0 1-.473-.677h-.179v1.508h-1.457Zm1.483-4.909c0 .742.108 1.396.326 1.962.217.563.534 1.004.952 1.324.418.315.929.473 1.534.473.631 0 1.157-.167 1.579-.499.426-.337.746-.788.959-1.355a5.325 5.325 0 0 0 .326-1.905c0-.69-.107-1.312-.32-1.866-.209-.559-.526-1-.952-1.324-.422-.328-.953-.492-1.592-.492-.614 0-1.129.156-1.547.467-.417.307-.733.737-.946 1.291-.213.55-.319 1.191-.319 1.924Zm-15.051-.997v5.906h-1.509v-9.818h1.458v1.534h.127c.231-.498.58-.899 1.049-1.202.469-.306 1.074-.46 1.815-.46.665 0 1.247.137 1.745.409.499.269.887.678 1.163 1.228.277.545.416 1.235.416 2.071v6.238h-1.509v-6.136c0-.771-.2-1.372-.6-1.803-.401-.434-.951-.652-1.65-.652-.481 0-.911.105-1.291.314a2.23 2.23 0 0 0-.888.914c-.218.4-.326.886-.326 1.457Zm-7.9 6.111c-.887 0-1.664-.211-2.333-.633-.665-.422-1.185-1.012-1.56-1.771-.371-.758-.556-1.645-.556-2.659 0-1.022.185-1.915.556-2.678.375-.763.895-1.355 1.56-1.777.669-.422 1.446-.633 2.333-.633.886 0 1.662.211 2.326.633.669.422 1.189 1.014 1.56 1.777.375.763.563 1.656.563 2.678 0 1.014-.188 1.901-.563 2.659-.371.759-.891 1.349-1.56 1.771-.664.422-1.44.633-2.326.633Zm0-1.355c.673 0 1.227-.173 1.662-.518.434-.345.756-.799.965-1.362a5.202 5.202 0 0 0 .313-1.828 5.26 5.26 0 0 0-.313-1.834 3.102 3.102 0 0 0-.965-1.375c-.435-.349-.989-.524-1.662-.524-.674 0-1.228.175-1.662.524-.435.35-.757.808-.965 1.375a5.26 5.26 0 0 0-.314 1.834c0 .657.105 1.266.314 1.828.208.563.53 1.017.965 1.362.434.345.988.518 1.662.518Zm-7.9 1.15v-9.818h1.508v9.818h-1.508Zm.767-11.454c-.294 0-.548-.1-.761-.301a.964.964 0 0 1-.313-.722c0-.281.104-.522.313-.722a1.07 1.07 0 0 1 .761-.301c.294 0 .545.1.754.301.213.2.319.441.319.722a.955.955 0 0 1-.319.722c-.209.201-.46.301-.754.301Zm-2.677 1.636v1.278h-5.088v-1.278h5.088Zm-3.605-2.352h1.509v9.358c0 .426.062.745.185.959.128.208.29.349.486.421.2.069.411.103.633.103.166 0 .302-.009.409-.026l.256-.051.306 1.355a3.064 3.064 0 0 1-.428.115 3.126 3.126 0 0 1-.697.064c-.426 0-.843-.092-1.253-.275a2.486 2.486 0 0 1-1.009-.837c-.265-.375-.397-.848-.397-1.419v-9.767Zm-6.371 12.375c-.92 0-1.713-.218-2.377-.652-.665-.435-1.177-1.034-1.535-1.796-.357-.763-.536-1.635-.536-2.615 0-.997.183-1.877.549-2.64.371-.767.887-1.365 1.547-1.796.665-.434 1.44-.652 2.327-.652.69 0 1.312.128 1.866.384a3.564 3.564 0 0 1 1.362 1.074c.354.46.573.997.658 1.61h-1.508c-.115-.447-.371-.843-.767-1.189-.392-.349-.921-.524-1.586-.524-.588 0-1.103.154-1.546.461-.439.302-.782.73-1.03 1.284-.242.55-.364 1.196-.364 1.937 0 .759.119 1.419.358 1.982.243.562.584.999 1.023 1.31.443.311.963.467 1.559.467.392 0 .748-.069 1.068-.205.319-.136.59-.332.812-.588.221-.256.379-.562.473-.92h1.508a3.493 3.493 0 0 1-.633 1.566c-.332.46-.773.826-1.323 1.099-.545.269-1.18.403-1.905.403Zm-9.988 0c-.946 0-1.762-.209-2.448-.627a4.2 4.2 0 0 1-1.579-1.764c-.367-.758-.55-1.64-.55-2.646s.183-1.892.55-2.659c.37-.772.886-1.372 1.547-1.803.664-.434 1.44-.652 2.326-.652.512 0 1.017.085 1.515.256.499.17.953.447 1.362.831.409.379.735.882.978 1.508.243.627.364 1.398.364 2.314v.639h-7.568v-1.303h6.034c0-.554-.111-1.049-.332-1.483a2.514 2.514 0 0 0-.934-1.03c-.4-.251-.873-.377-1.419-.377-.601 0-1.12.149-1.559.448-.435.294-.77.677-1.004 1.15-.234.473-.351.98-.351 1.522v.869c0 .741.127 1.37.383 1.886.26.511.62.901 1.08 1.169.461.265.995.397 1.605.397.396 0 .754-.056 1.074-.167.323-.115.603-.285.837-.511.234-.23.415-.516.543-.856l1.458.409a3.244 3.244 0 0 1-.774 1.304c-.362.37-.809.66-1.342.869a4.993 4.993 0 0 1-1.796.307Zm-5.92-10.023v1.278h-5.089v-1.278h5.089Zm-3.606-2.352h1.509v9.358c0 .426.062.745.185.959.128.208.29.349.486.421.2.069.411.103.633.103.166 0 .302-.009.409-.026l.256-.051.306 1.355a3.064 3.064 0 0 1-.428.115 3.126 3.126 0 0 1-.697.064c-.426 0-.843-.092-1.252-.275a2.482 2.482 0 0 1-1.01-.837c-.265-.375-.397-.848-.397-1.419v-9.767Zm-7.056 12.375c-.886 0-1.664-.211-2.333-.633-.665-.422-1.185-1.012-1.56-1.771-.37-.758-.556-1.645-.556-2.659 0-1.022.186-1.915.556-2.678.375-.763.895-1.355 1.56-1.777.669-.422 1.447-.633 2.333-.633.886 0 1.662.211 2.327.633.669.422 1.189 1.014 1.559 1.777.375.763.563 1.656.563 2.678 0 1.014-.188 1.901-.563 2.659-.37.759-.89 1.349-1.559 1.771-.665.422-1.441.633-2.327.633Zm0-1.355c.673 0 1.227-.173 1.662-.518.435-.345.756-.799.965-1.362a5.202 5.202 0 0 0 .313-1.828 5.26 5.26 0 0 0-.313-1.834 3.094 3.094 0 0 0-.965-1.375c-.435-.349-.989-.524-1.662-.524-.673 0-1.227.175-1.662.524-.435.35-.756.808-.965 1.375a5.26 5.26 0 0 0-.313 1.834c0 .657.104 1.266.313 1.828.209.563.53 1.017.965 1.362.435.345.989.518 1.662.518Zm-10.027 1.15v-9.818h1.457v1.483h.103c.179-.486.502-.88.971-1.183a2.864 2.864 0 0 1 1.585-.453c.111 0 .25.002.416.006.166.004.292.011.377.019v1.534a4.15 4.15 0 0 0-.352-.057 3.424 3.424 0 0 0-.568-.045c-.478 0-.904.1-1.279.3a2.204 2.204 0 0 0-1.202 2.001v6.213h-1.508Zm-10.861 0V382.94h4.423c1.027 0 1.866.186 2.518.556.657.367 1.143.863 1.458 1.49.315.626.473 1.325.473 2.096 0 .772-.158 1.473-.473 2.103-.311.631-.793 1.134-1.445 1.509-.652.371-1.487.556-2.505.556h-3.171v-1.406h3.119c.704 0 1.268-.122 1.694-.365.426-.243.735-.571.927-.984.196-.418.294-.889.294-1.413s-.098-.993-.294-1.406a2.106 2.106 0 0 0-.933-.972c-.43-.238-1.001-.357-1.713-.357h-2.787v11.684h-1.585Zm228.697-33.818v1.278h-5.088v-1.278h5.088Zm-3.605-2.352h1.508v9.358c0 .426.062.745.185.959.128.208.29.349.486.421.2.069.411.103.633.103.166 0 .303-.009.409-.026l.256-.051.307 1.355a3.085 3.085 0 0 1-.429.115 3.122 3.122 0 0 1-.696.064c-.427 0-.844-.092-1.253-.275a2.482 2.482 0 0 1-1.01-.837c-.264-.375-.396-.848-.396-1.419v-9.767Zm-7.559 12.4a3.999 3.999 0 0 1-1.694-.351 2.917 2.917 0 0 1-1.208-1.029c-.298-.452-.447-.998-.447-1.637 0-.562.111-1.018.332-1.368a2.36 2.36 0 0 1 .889-.831c.371-.2.78-.349 1.227-.447.452-.102.906-.183 1.362-.243.596-.077 1.08-.134 1.451-.173.375-.042.647-.112.818-.21.174-.098.262-.269.262-.512v-.051c0-.631-.173-1.121-.518-1.47-.341-.35-.859-.524-1.553-.524-.72 0-1.285.157-1.694.473-.409.315-.697.652-.863 1.01l-1.432-.512c.256-.596.597-1.061 1.023-1.393.43-.337.899-.571 1.406-.703a5.815 5.815 0 0 1 1.509-.205c.315 0 .677.039 1.086.115.414.073.812.224 1.196.454.387.23.709.577.965 1.042.256.464.383 1.087.383 1.866v6.469h-1.508v-1.329h-.077c-.102.213-.273.441-.511.684-.239.243-.556.449-.953.62-.396.17-.88.255-1.451.255Zm.23-1.355c.597 0 1.1-.117 1.509-.351a2.4 2.4 0 0 0 1.253-2.078v-1.38c-.064.076-.205.147-.422.21-.213.06-.46.113-.742.16a31.56 31.56 0 0 1-1.444.192 5.765 5.765 0 0 0-1.1.249 1.9 1.9 0 0 0-.818.505c-.204.222-.307.524-.307.908 0 .524.194.92.582 1.189.392.264.889.396 1.489.396Zm-9.119 1.33c-.946 0-1.762-.209-2.448-.627a4.207 4.207 0 0 1-1.579-1.764c-.366-.758-.55-1.64-.55-2.646s.184-1.892.55-2.659c.371-.772.886-1.372 1.547-1.803.665-.434 1.44-.652 2.327-.652.511 0 1.016.085 1.515.256.498.17.952.447 1.361.831.409.379.735.882.978 1.508.243.627.364 1.398.364 2.314v.639h-7.568v-1.303h6.034c0-.554-.11-1.049-.332-1.483a2.505 2.505 0 0 0-.933-1.03c-.401-.251-.874-.377-1.419-.377-.601 0-1.121.149-1.56.448a2.945 2.945 0 0 0-1.004 1.15c-.234.473-.351.98-.351 1.522v.869c0 .741.128 1.37.383 1.886.26.511.62.901 1.081 1.169.46.265.995.397 1.604.397.396 0 .754-.056 1.074-.167a2.29 2.29 0 0 0 .837-.511c.235-.23.416-.516.544-.856l1.457.409a3.23 3.23 0 0 1-.773 1.304c-.363.37-.81.66-1.343.869-.532.204-1.131.307-1.796.307Zm-10.155-.205v-9.818h1.458v1.483h.102c.179-.486.503-.88.971-1.183a2.867 2.867 0 0 1 1.586-.453c.11 0 .249.002.415.006.166.004.292.011.377.019v1.534a4.176 4.176 0 0 0-.351-.057 3.445 3.445 0 0 0-.569-.045c-.477 0-.904.1-1.279.3-.37.196-.664.469-.882.819a2.203 2.203 0 0 0-.319 1.182v6.213h-1.509Zm-8.766-5.906v5.906h-1.509V358.94h1.509v4.807h.128c.23-.507.575-.91 1.035-1.208.465-.303 1.083-.454 1.854-.454.669 0 1.255.134 1.758.403.503.264.893.671 1.17 1.221.281.545.421 1.24.421 2.084v6.238h-1.508v-6.136c0-.78-.203-1.383-.607-1.809-.401-.431-.957-.646-1.669-.646a2.78 2.78 0 0 0-1.329.314 2.282 2.282 0 0 0-.921.914c-.221.4-.332.886-.332 1.457Zm-13.209-5.778v-1.407h9.818v1.407h-4.116v11.684h-1.585v-11.684h-4.117Zm-6.626 9.894-.102.691a13.856 13.856 0 0 1-.333 1.559 29.248 29.248 0 0 1-.453 1.566c-.158.491-.288.88-.39 1.17h-1.151c.056-.273.128-.633.217-1.08.09-.447.179-.948.269-1.502.094-.55.17-1.112.23-1.688l.077-.716h1.636Zm-8.25 1.995c-.946 0-1.762-.209-2.448-.627a4.207 4.207 0 0 1-1.579-1.764c-.366-.758-.55-1.64-.55-2.646s.184-1.892.55-2.659c.371-.772.886-1.372 1.547-1.803.665-.434 1.44-.652 2.327-.652.511 0 1.016.085 1.515.256.498.17.952.447 1.361.831.409.379.735.882.978 1.508.243.627.364 1.398.364 2.314v.639h-7.568v-1.303h6.034c0-.554-.11-1.049-.332-1.483a2.505 2.505 0 0 0-.933-1.03c-.401-.251-.874-.377-1.419-.377-.601 0-1.121.149-1.56.448a2.945 2.945 0 0 0-1.004 1.15c-.234.473-.351.98-.351 1.522v.869c0 .741.128 1.37.383 1.886.26.511.62.901 1.081 1.169.46.265.995.397 1.604.397.396 0 .754-.056 1.074-.167a2.29 2.29 0 0 0 .837-.511c.235-.23.416-.516.544-.856l1.457.409a3.23 3.23 0 0 1-.773 1.304c-.363.37-.81.66-1.343.869-.532.204-1.131.307-1.796.307Zm-5.466-10.023v1.278h-5.293v-1.278h5.293Zm-3.708 9.818v-11.173c0-.563.132-1.031.397-1.406a2.45 2.45 0 0 1 1.029-.844 3.245 3.245 0 0 1 1.336-.281c.37 0 .673.029.907.089.235.06.409.115.524.166l-.434 1.304a9.527 9.527 0 0 0-.32-.096 1.955 1.955 0 0 0-.524-.057c-.498 0-.859.126-1.08.377-.217.251-.326.62-.326 1.106v10.815h-1.509Zm-7.558.23a3.996 3.996 0 0 1-1.694-.351 2.911 2.911 0 0 1-1.208-1.029c-.298-.452-.447-.998-.447-1.637 0-.562.111-1.018.332-1.368a2.36 2.36 0 0 1 .889-.831c.37-.2.779-.349 1.227-.447a15.16 15.16 0 0 1 1.361-.243 64.64 64.64 0 0 1 1.451-.173c.375-.042.648-.112.819-.21.174-.098.262-.269.262-.512v-.051c0-.631-.173-1.121-.518-1.47-.341-.35-.859-.524-1.553-.524-.721 0-1.285.157-1.694.473-.409.315-.697.652-.863 1.01l-1.432-.512c.256-.596.597-1.061 1.023-1.393.43-.337.899-.571 1.406-.703a5.81 5.81 0 0 1 1.509-.205c.315 0 .677.039 1.086.115.413.073.812.224 1.195.454.388.23.71.577.966 1.042.255.464.383 1.087.383 1.866v6.469h-1.508v-1.329h-.077c-.102.213-.273.441-.511.684-.239.243-.557.449-.953.62-.396.17-.88.255-1.451.255Zm.23-1.355c.597 0 1.1-.117 1.509-.351a2.4 2.4 0 0 0 1.253-2.078v-1.38c-.064.076-.205.147-.422.21-.213.06-.46.113-.742.16a31.56 31.56 0 0 1-1.444.192 5.765 5.765 0 0 0-1.1.249 1.9 1.9 0 0 0-.818.505c-.204.222-.307.524-.307.908 0 .524.194.92.582 1.189.392.264.888.396 1.489.396Zm-5.209-6.494-1.355.383a2.526 2.526 0 0 0-.377-.658 1.841 1.841 0 0 0-.665-.537c-.281-.141-.641-.211-1.08-.211-.601 0-1.102.139-1.502.416-.396.272-.595.62-.595 1.042 0 .375.137.671.409.888.273.217.699.398 1.279.543l1.457.358c.878.213 1.532.539 1.963.978.43.435.645.995.645 1.681 0 .563-.162 1.066-.486 1.509-.319.443-.767.793-1.342 1.048-.575.256-1.244.384-2.007.384-1.001 0-1.83-.218-2.487-.652-.656-.435-1.071-1.07-1.246-1.905l1.432-.358c.136.528.394.925.773 1.189.384.264.884.396 1.502.396.704 0 1.262-.149 1.675-.447.418-.303.627-.665.627-1.087 0-.341-.12-.626-.358-.856-.239-.235-.606-.41-1.1-.525l-1.636-.383c-.899-.213-1.56-.543-1.982-.991-.417-.452-.626-1.016-.626-1.694 0-.554.155-1.044.466-1.47.316-.426.744-.761 1.285-1.003.546-.243 1.164-.365 1.854-.365.972 0 1.734.213 2.288.639.559.427.955.989 1.189 1.688Zm-15.615 1.713v5.906h-1.509v-9.818h1.458v1.534h.128c.23-.498.579-.899 1.048-1.202.469-.306 1.074-.46 1.815-.46.665 0 1.247.137 1.745.409.499.269.887.678 1.164 1.228.277.545.415 1.235.415 2.071v6.238h-1.508v-6.136c0-.771-.201-1.372-.601-1.803-.401-.434-.951-.652-1.649-.652-.482 0-.912.105-1.292.314a2.23 2.23 0 0 0-.888.914c-.217.4-.326.886-.326 1.457Zm-5.42 1.892v-5.804h1.508v9.818h-1.508v-1.662h-.102c-.23.499-.588.923-1.074 1.272-.486.345-1.1.518-1.841.518-.614 0-1.159-.134-1.637-.403-.477-.272-.852-.681-1.125-1.227-.272-.55-.409-1.242-.409-2.077v-6.239h1.509v6.136c0 .716.2 1.287.601 1.713.405.427.92.64 1.547.64.375 0 .756-.096 1.144-.288.392-.192.72-.486.984-.882.269-.396.403-.901.403-1.515Zm-12.98-3.605-1.355.383a2.526 2.526 0 0 0-.377-.658 1.841 1.841 0 0 0-.665-.537c-.281-.141-.641-.211-1.08-.211-.601 0-1.102.139-1.502.416-.397.272-.595.62-.595 1.042 0 .375.137.671.409.888.273.217.699.398 1.279.543l1.457.358c.878.213 1.532.539 1.963.978.43.435.645.995.645 1.681 0 .563-.162 1.066-.486 1.509-.319.443-.767.793-1.342 1.048-.575.256-1.244.384-2.007.384-1.002 0-1.83-.218-2.487-.652-.656-.435-1.071-1.07-1.246-1.905l1.432-.358c.136.528.394.925.773 1.189.384.264.884.396 1.502.396.703 0 1.262-.149 1.675-.447.418-.303.626-.665.626-1.087 0-.341-.119-.626-.357-.856-.239-.235-.606-.41-1.1-.525l-1.636-.383c-.899-.213-1.56-.543-1.982-.991-.417-.452-.626-1.016-.626-1.694 0-.554.155-1.044.466-1.47.316-.426.744-.761 1.285-1.003.546-.243 1.164-.365 1.854-.365.971 0 1.734.213 2.288.639a3.45 3.45 0 0 1 1.189 1.688Zm-10.866 7.619v-9.818h1.509v9.818h-1.509Zm.767-11.454c-.294 0-.547-.1-.76-.301a.965.965 0 0 1-.314-.722c0-.281.105-.522.314-.722.213-.201.466-.301.76-.301s.546.1.754.301c.213.2.32.441.32.722a.956.956 0 0 1-.32.722c-.208.201-.46.301-.754.301Zm-15.03 11.454V358.94h1.585v11.685h6.086v1.406h-7.671Zm-11.154 0V358.94h4.424c1.023 0 1.862.175 2.518.524.656.346 1.142.821 1.458 1.426.315.605.473 1.293.473 2.064 0 .772-.158 1.456-.473 2.052-.316.597-.799 1.066-1.451 1.407-.652.336-1.485.505-2.5.505h-3.579v-1.432h3.528c.699 0 1.262-.103 1.688-.307.43-.205.741-.494.933-.869.196-.38.294-.831.294-1.356 0-.524-.098-.982-.294-1.374-.196-.392-.509-.694-.94-.907-.43-.218-.999-.326-1.706-.326h-2.787v11.684h-1.586Zm6.162-5.88 3.222 5.88h-1.841l-3.17-5.88h1.789Zm-10.552-7.211h1.585v8.668c0 .895-.211 1.694-.633 2.397a4.425 4.425 0 0 1-1.771 1.655c-.762.401-1.657.601-2.684.601-1.027 0-1.922-.2-2.685-.601a4.468 4.468 0 0 1-1.777-1.655c-.418-.703-.626-1.502-.626-2.397v-8.668h1.585v8.54c0 .639.141 1.208.422 1.707.281.494.682.884 1.201 1.169.525.282 1.151.422 1.88.422.728 0 1.355-.14 1.879-.422a2.97 2.97 0 0 0 1.202-1.169c.281-.499.422-1.068.422-1.707v-8.54Zm-19.498 13.296c-.946 0-1.763-.209-2.449-.627a4.205 4.205 0 0 1-1.578-1.764c-.367-.758-.55-1.64-.55-2.646s.183-1.892.55-2.659c.37-.772.886-1.372 1.546-1.803.665-.434 1.441-.652 2.327-.652a4.64 4.64 0 0 1 1.515.256c.499.17.952.447 1.362.831.409.379.735.882.978 1.508.242.627.364 1.398.364 2.314v.639h-7.568v-1.303h6.034c0-.554-.111-1.049-.333-1.483a2.505 2.505 0 0 0-.933-1.03c-.4-.251-.873-.377-1.419-.377-.601 0-1.121.149-1.56.448a2.942 2.942 0 0 0-1.003 1.15c-.234.473-.352.98-.352 1.522v.869c0 .741.128 1.37.384 1.886.26.511.62.901 1.08 1.169.46.265.995.397 1.605.397.396 0 .754-.056 1.073-.167.324-.115.603-.285.838-.511.234-.23.415-.516.543-.856l1.457.409a3.23 3.23 0 0 1-.773 1.304c-.362.37-.81.66-1.342.869a4.993 4.993 0 0 1-1.796.307Zm-12.883-6.111v5.906h-1.509V358.94h1.509v4.807h.128c.23-.507.575-.91 1.035-1.208.465-.303 1.083-.454 1.854-.454.669 0 1.255.134 1.758.403.503.264.892.671 1.169 1.221.282.545.422 1.24.422 2.084v6.238h-1.508v-6.136c0-.78-.203-1.383-.607-1.809-.401-.431-.957-.646-1.669-.646a2.78 2.78 0 0 0-1.329.314 2.282 2.282 0 0 0-.921.914c-.221.4-.332.886-.332 1.457Zm-3.629-3.912v1.278h-5.088v-1.278h5.088Zm-3.605-2.352h1.509v9.358c0 .426.061.745.185.959.128.208.29.349.486.421.2.069.411.103.633.103.166 0 .302-.009.409-.026l.255-.051.307 1.355a3.064 3.064 0 0 1-.428.115 3.132 3.132 0 0 1-.697.064c-.426 0-.844-.092-1.253-.275a2.495 2.495 0 0 1-1.01-.837c-.264-.375-.396-.848-.396-1.419v-9.767Zm-7.121 2.352v1.278h-5.293v-1.278h5.293Zm-3.708 9.818v-11.173c0-.563.132-1.031.397-1.406a2.45 2.45 0 0 1 1.029-.844 3.245 3.245 0 0 1 1.336-.281c.37 0 .673.029.907.089.235.06.409.115.524.166l-.434 1.304a9.527 9.527 0 0 0-.32-.096 1.955 1.955 0 0 0-.524-.057c-.499 0-.859.126-1.08.377-.218.251-.326.62-.326 1.106v10.815h-1.509Zm-3.278-13.091v13.091h-1.586V358.94h1.586Z" fill="#000"/><path d="M627.359 304.827c0 24.024-19.475 43.5-43.5 43.5-24.024 0-43.5-19.476-43.5-43.5 0-24.025 19.476-43.5 43.5-43.5 24.025 0 43.5 19.475 43.5 43.5Z" fill="#fff"/><path d="M583.861 284.938c10.985 0 19.888 8.903 19.888 19.888 0 10.985-8.903 19.888-19.888 19.888-10.985 0-19.888-8.903-19.888-19.888 0-10.985 8.903-19.888 19.888-19.888Zm0 37.29c1.297 0 3.138-1.118 4.809-4.451.769-1.538 1.413-3.465 1.802-5.493H577.18c.458 2.028 1.103 3.955 1.872 5.493 1.67 3.333 3.511 4.451 4.809 4.451Zm-7.124-12.43h14.248c.217-1.569.334-3.239.334-4.972a36.43 36.43 0 0 0-.334-4.972h-14.248a36.271 36.271 0 0 0-.334 4.972c0 1.733.116 3.403.334 4.972Zm13.735-12.43c-.389-2.097-1.033-3.954-1.802-5.493-1.671-3.334-3.512-4.451-4.809-4.451-1.298 0-3.139 1.117-4.809 4.451-.769 1.539-1.414 3.396-1.872 5.493h13.292Zm2.952 2.486c.272 1.593.381 3.255.381 4.972 0 1.717-.109 3.38-.381 4.972h7.116a17.25 17.25 0 0 0 .723-4.972c0-1.724-.249-3.395-.723-4.972h-7.116Zm-4.009-11.524c1.632 2.201 2.921 5.34 3.667 9.038h6.503a17.431 17.431 0 0 0-10.17-9.038Zm-11.109 0a17.452 17.452 0 0 0-10.172 9.038h6.505c.746-3.698 2.036-6.837 3.667-9.038Zm-11.847 16.496c0 1.725.251 3.395.721 4.972h7.047a39.535 39.535 0 0 1-.31-4.972c0-1.717.108-3.379.31-4.972h-7.047a17.392 17.392 0 0 0-.721 4.972Zm33.126 7.458h-6.503c-.746 3.698-2.035 6.837-3.667 9.035a17.41 17.41 0 0 0 10.17-9.035Zm-24.946 0h-6.505a17.431 17.431 0 0 0 10.172 9.035c-1.631-2.198-2.921-5.337-3.667-9.035Zm86.287 83.952c-.946 0-1.762-.209-2.448-.627a4.207 4.207 0 0 1-1.579-1.764c-.366-.758-.55-1.64-.55-2.646s.184-1.892.55-2.659c.371-.772.887-1.372 1.547-1.803.665-.434 1.44-.652 2.327-.652.511 0 1.016.085 1.515.256.498.17.952.447 1.361.831.409.379.735.882.978 1.508.243.627.365 1.398.365 2.314v.639h-7.569v-1.303h6.034c0-.554-.11-1.049-.332-1.483a2.505 2.505 0 0 0-.933-1.03c-.401-.251-.874-.377-1.419-.377-.601 0-1.121.149-1.56.448a2.934 2.934 0 0 0-1.003 1.15c-.235.473-.352.98-.352 1.522v.869c0 .741.128 1.37.384 1.886.259.511.62.901 1.08 1.169.46.265.995.397 1.604.397.396 0 .754-.056 1.074-.167a2.29 2.29 0 0 0 .837-.511c.235-.23.416-.516.544-.856l1.457.409a3.23 3.23 0 0 1-.773 1.304c-.363.37-.81.66-1.343.869-.532.204-1.131.307-1.796.307Zm-5.92-10.023v1.278h-5.088v-1.278h5.088Zm-3.605-2.352h1.508v9.358c0 .426.062.745.186.959.128.208.29.349.486.421.2.069.411.103.632.103.167 0 .303-.009.409-.026l.256-.051.307 1.355a3.064 3.064 0 0 1-.428.115 3.138 3.138 0 0 1-.697.064c-.426 0-.844-.092-1.253-.275a2.488 2.488 0 0 1-1.01-.837c-.264-.375-.396-.848-.396-1.419v-9.767Zm-4.576 12.17v-9.818h1.508v9.818h-1.508Zm.767-11.454c-.294 0-.548-.1-.761-.301a.964.964 0 0 1-.313-.722c0-.281.104-.522.313-.722a1.07 1.07 0 0 1 .761-.301c.294 0 .545.1.754.301.213.2.32.441.32.722a.956.956 0 0 1-.32.722c-.209.201-.46.301-.754.301Zm-2.857 3.835-1.355.383a2.526 2.526 0 0 0-.377-.658 1.841 1.841 0 0 0-.665-.537c-.281-.141-.642-.211-1.08-.211-.601 0-1.102.139-1.503.416-.396.272-.594.62-.594 1.042 0 .375.136.671.409.888.273.217.699.398 1.278.543l1.458.358c.878.213 1.532.539 1.962.978.431.435.646.995.646 1.681 0 .563-.162 1.066-.486 1.509-.32.443-.767.793-1.342 1.048-.576.256-1.245.384-2.007.384-1.002 0-1.831-.218-2.487-.652-.656-.435-1.072-1.07-1.246-1.905l1.431-.358c.137.528.395.925.774 1.189.383.264.884.396 1.502.396.703 0 1.261-.149 1.675-.447.417-.303.626-.665.626-1.087a1.14 1.14 0 0 0-.358-.856c-.238-.235-.605-.41-1.099-.525l-1.637-.383c-.899-.213-1.559-.543-1.981-.991-.418-.452-.627-1.016-.627-1.694 0-.554.156-1.044.467-1.47.315-.426.744-.761 1.285-1.003.545-.243 1.163-.365 1.854-.365.971 0 1.734.213 2.288.639.558.427.954.989 1.189 1.688Zm-17.57 7.619V382.94h1.509v4.833h.128c.11-.171.264-.388.46-.652.2-.269.486-.507.856-.716.375-.213.882-.32 1.522-.32.826 0 1.555.207 2.186.62.63.414 1.123.999 1.476 1.758.354.759.531 1.653.531 2.685 0 1.039-.177 1.941-.531 2.704-.353.758-.844 1.346-1.47 1.764-.626.413-1.349.62-2.167.62-.631 0-1.136-.105-1.515-.313-.379-.214-.671-.454-.875-.723a9.112 9.112 0 0 1-.473-.677h-.179v1.508h-1.458Zm1.483-4.909c0 .742.109 1.396.326 1.962.217.563.535 1.004.953 1.324.417.315.928.473 1.534.473.63 0 1.157-.167 1.578-.499.427-.337.746-.788.959-1.355.218-.571.326-1.206.326-1.905 0-.69-.106-1.312-.319-1.866-.209-.559-.527-1-.953-1.324-.422-.328-.952-.492-1.591-.492-.614 0-1.13.156-1.547.467-.418.307-.733.737-.946 1.291-.213.55-.32 1.191-.32 1.924Zm-7.687 5.114c-.946 0-1.763-.209-2.449-.627a4.205 4.205 0 0 1-1.578-1.764c-.367-.758-.55-1.64-.55-2.646s.183-1.892.55-2.659c.37-.772.886-1.372 1.546-1.803.665-.434 1.441-.652 2.327-.652.511 0 1.016.085 1.515.256.499.17.952.447 1.362.831.409.379.735.882.978 1.508.242.627.364 1.398.364 2.314v.639h-7.568v-1.303h6.034c0-.554-.111-1.049-.333-1.483a2.505 2.505 0 0 0-.933-1.03c-.4-.251-.873-.377-1.419-.377-.601 0-1.121.149-1.56.448a2.942 2.942 0 0 0-1.003 1.15c-.234.473-.352.98-.352 1.522v.869c0 .741.128 1.37.384 1.886.26.511.62.901 1.08 1.169.46.265.995.397 1.605.397.396 0 .754-.056 1.073-.167.324-.115.603-.285.838-.511.234-.23.415-.516.543-.856l1.457.409a3.23 3.23 0 0 1-.773 1.304c-.362.37-.81.66-1.342.869a4.993 4.993 0 0 1-1.796.307Zm-15.824-.205-2.991-9.818h1.585l2.122 7.517h.103l2.096-7.517h1.611l2.071 7.492h.102l2.122-7.492h1.586l-2.992 9.818h-1.483l-2.147-7.542h-.154l-2.148 7.542h-1.483Zm-12.927.205c-.946 0-1.762-.209-2.448-.627a4.207 4.207 0 0 1-1.579-1.764c-.366-.758-.549-1.64-.549-2.646s.183-1.892.549-2.659c.371-.772.887-1.372 1.547-1.803.665-.434 1.441-.652 2.327-.652.511 0 1.016.085 1.515.256.499.17.952.447 1.361.831.41.379.736.882.978 1.508.243.627.365 1.398.365 2.314v.639h-7.568v-1.303h6.034c0-.554-.111-1.049-.333-1.483a2.505 2.505 0 0 0-.933-1.03c-.4-.251-.874-.377-1.419-.377-.601 0-1.121.149-1.56.448a2.942 2.942 0 0 0-1.003 1.15c-.235.473-.352.98-.352 1.522v.869c0 .741.128 1.37.384 1.886.26.511.62.901 1.08 1.169.46.265.995.397 1.604.397.397 0 .755-.056 1.074-.167.324-.115.603-.285.838-.511.234-.23.415-.516.543-.856l1.457.409a3.23 3.23 0 0 1-.773 1.304c-.362.37-.81.66-1.342.869-.533.204-1.132.307-1.797.307Zm-12.882-6.111v5.906h-1.509V382.94h1.509v4.807h.128c.23-.507.575-.91 1.035-1.208.465-.303 1.082-.454 1.854-.454.669 0 1.255.134 1.758.403.502.264.892.671 1.169 1.221.282.545.422 1.24.422 2.084v6.238h-1.508v-6.136c0-.78-.203-1.383-.608-1.809-.4-.431-.956-.646-1.668-.646a2.78 2.78 0 0 0-1.329.314 2.282 2.282 0 0 0-.921.914c-.221.4-.332.886-.332 1.457Zm-3.629-3.912v1.278h-5.088v-1.278h5.088Zm-3.605-2.352h1.509v9.358c0 .426.061.745.185.959.128.208.29.349.486.421.2.069.411.103.632.103.167 0 .303-.009.41-.026l.255-.051.307 1.355a3.064 3.064 0 0 1-.428.115 3.132 3.132 0 0 1-.697.064c-.426 0-.844-.092-1.253-.275a2.488 2.488 0 0 1-1.01-.837c-.264-.375-.396-.848-.396-1.419v-9.767Zm-7.457 4.551-1.355.383a2.526 2.526 0 0 0-.377-.658 1.841 1.841 0 0 0-.665-.537c-.281-.141-.641-.211-1.08-.211-.601 0-1.102.139-1.502.416-.397.272-.595.62-.595 1.042 0 .375.136.671.409.888.273.217.699.398 1.279.543l1.457.358c.878.213 1.532.539 1.962.978.431.435.646.995.646 1.681 0 .563-.162 1.066-.486 1.509-.319.443-.767.793-1.342 1.048-.575.256-1.245.384-2.007.384-1.002 0-1.831-.218-2.487-.652-.656-.435-1.072-1.07-1.246-1.905l1.432-.358c.136.528.394.925.773 1.189.384.264.884.396 1.502.396.703 0 1.261-.149 1.675-.447.417-.303.626-.665.626-1.087a1.14 1.14 0 0 0-.358-.856c-.238-.235-.605-.41-1.099-.525l-1.636-.383c-.9-.213-1.56-.543-1.982-.991-.418-.452-.626-1.016-.626-1.694 0-.554.155-1.044.466-1.47.316-.426.744-.761 1.285-1.003.545-.243 1.163-.365 1.854-.365.971 0 1.734.213 2.288.639a3.45 3.45 0 0 1 1.189 1.688Zm-12.955 7.824c-.946 0-1.762-.209-2.448-.627a4.207 4.207 0 0 1-1.579-1.764c-.366-.758-.549-1.64-.549-2.646s.183-1.892.549-2.659c.371-.772.887-1.372 1.547-1.803.665-.434 1.441-.652 2.327-.652.511 0 1.016.085 1.515.256.498.17.952.447 1.361.831.409.379.735.882.978 1.508.243.627.365 1.398.365 2.314v.639h-7.569v-1.303h6.035c0-.554-.111-1.049-.333-1.483a2.505 2.505 0 0 0-.933-1.03c-.401-.251-.874-.377-1.419-.377-.601 0-1.121.149-1.56.448a2.942 2.942 0 0 0-1.003 1.15c-.235.473-.352.98-.352 1.522v.869c0 .741.128 1.37.384 1.886.26.511.62.901 1.08 1.169.46.265.995.397 1.604.397.397 0 .755-.056 1.074-.167.324-.115.603-.285.838-.511.234-.23.415-.516.543-.856l1.457.409a3.23 3.23 0 0 1-.773 1.304c-.362.37-.81.66-1.343.869-.532.204-1.131.307-1.796.307Zm-12.882-6.111v5.906h-1.509V382.94h1.509v4.807h.127c.231-.507.576-.91 1.036-1.208.464-.303 1.082-.454 1.854-.454.669 0 1.255.134 1.757.403.503.264.893.671 1.17 1.221.281.545.422 1.24.422 2.084v6.238h-1.508v-6.136c0-.78-.203-1.383-.608-1.809-.4-.431-.956-.646-1.668-.646-.494 0-.938.105-1.33.314a2.286 2.286 0 0 0-.92.914c-.222.4-.332.886-.332 1.457Zm-7.215 6.111c-.92 0-1.713-.218-2.378-.652-.665-.435-1.176-1.034-1.534-1.796-.358-.763-.537-1.635-.537-2.615 0-.997.183-1.877.55-2.64.371-.767.886-1.365 1.547-1.796.665-.434 1.44-.652 2.326-.652.691 0 1.313.128 1.867.384a3.554 3.554 0 0 1 1.361 1.074c.354.46.574.997.659 1.61h-1.509c-.115-.447-.37-.843-.767-1.189-.392-.349-.92-.524-1.585-.524-.588 0-1.104.154-1.547.461-.439.302-.782.73-1.029 1.284-.243.55-.364 1.196-.364 1.937 0 .759.119 1.419.358 1.982.243.562.583.999 1.022 1.31.444.311.963.467 1.56.467.392 0 .748-.069 1.067-.205a2.187 2.187 0 0 0 1.285-1.508h1.509a3.493 3.493 0 0 1-.633 1.566c-.332.46-.773.826-1.323 1.099-.546.269-1.181.403-1.905.403Zm-10.882.025a3.996 3.996 0 0 1-1.694-.351 2.911 2.911 0 0 1-1.208-1.029c-.298-.452-.447-.998-.447-1.637 0-.562.11-1.018.332-1.368.222-.353.518-.63.888-.831.371-.2.78-.349 1.228-.447.451-.102.905-.183 1.361-.243.597-.077 1.08-.134 1.451-.173.375-.042.648-.112.818-.21.175-.098.262-.269.262-.512v-.051c0-.631-.172-1.121-.517-1.47-.341-.35-.859-.524-1.554-.524-.72 0-1.284.157-1.693.473-.41.315-.697.652-.863 1.01l-1.432-.512c.256-.596.596-1.061 1.023-1.393.43-.337.899-.571 1.406-.703a5.808 5.808 0 0 1 1.508-.205c.316 0 .678.039 1.087.115.413.073.812.224 1.195.454.388.23.71.577.965 1.042.256.464.384 1.087.384 1.866v6.469h-1.509v-1.329h-.076c-.102.213-.273.441-.512.684-.238.243-.556.449-.952.62-.396.17-.88.255-1.451.255Zm.23-1.355c.597 0 1.1-.117 1.509-.351a2.4 2.4 0 0 0 .933-.908c.213-.371.319-.761.319-1.17v-1.38c-.063.076-.204.147-.421.21a7.08 7.08 0 0 1-.742.16c-.277.043-.547.081-.812.115-.26.03-.471.056-.632.077a5.748 5.748 0 0 0-1.1.249 1.894 1.894 0 0 0-.818.505c-.205.222-.307.524-.307.908 0 .524.194.92.582 1.189.392.264.888.396 1.489.396Zm-9.119 1.33c-.946 0-1.762-.209-2.448-.627a4.2 4.2 0 0 1-1.579-1.764c-.367-.758-.55-1.64-.55-2.646s.183-1.892.55-2.659c.37-.772.886-1.372 1.547-1.803.664-.434 1.44-.652 2.326-.652.512 0 1.017.085 1.515.256.499.17.953.447 1.362.831.409.379.735.882.978 1.508.243.627.364 1.398.364 2.314v.639h-7.568v-1.303h6.034c0-.554-.111-1.049-.332-1.483a2.514 2.514 0 0 0-.934-1.03c-.4-.251-.873-.377-1.419-.377-.601 0-1.12.149-1.559.448-.435.294-.77.677-1.004 1.15-.234.473-.351.98-.351 1.522v.869c0 .741.127 1.37.383 1.886.26.511.62.901 1.08 1.169.461.265.995.397 1.605.397.396 0 .754-.056 1.074-.167.323-.115.603-.285.837-.511.234-.23.415-.516.543-.856l1.458.409a3.244 3.244 0 0 1-.774 1.304c-.362.37-.809.66-1.342.869a4.993 4.993 0 0 1-1.796.307Zm-10.155-.205v-9.818h1.457v1.483h.102c.179-.486.503-.88.972-1.183a2.864 2.864 0 0 1 1.585-.453c.111 0 .25.002.416.006.166.004.292.011.377.019v1.534a4.15 4.15 0 0 0-.352-.057 3.436 3.436 0 0 0-.569-.045c-.477 0-.903.1-1.278.3a2.204 2.204 0 0 0-1.202 2.001v6.213h-1.508Zm167.79-24v-9.818h1.457v1.483h.103c.179-.486.503-.88.971-1.183a2.865 2.865 0 0 1 1.586-.453c.11 0 .249.002.415.006.166.004.292.011.377.019v1.534a4.176 4.176 0 0 0-.351-.057 3.445 3.445 0 0 0-.569-.045c-.478 0-.904.1-1.279.3-.37.196-.664.469-.882.819a2.203 2.203 0 0 0-.319 1.182v6.213h-1.509Zm-6 .205c-.946 0-1.762-.209-2.448-.627a4.207 4.207 0 0 1-1.579-1.764c-.367-.758-.55-1.64-.55-2.646s.183-1.892.55-2.659c.371-.772.886-1.372 1.547-1.803.665-.434 1.44-.652 2.327-.652.511 0 1.016.085 1.514.256.499.17.953.447 1.362.831.409.379.735.882.978 1.508.243.627.364 1.398.364 2.314v.639h-7.568v-1.303h6.034c0-.554-.111-1.049-.332-1.483a2.518 2.518 0 0 0-.933-1.03c-.401-.251-.874-.377-1.419-.377-.601 0-1.121.149-1.56.448a2.945 2.945 0 0 0-1.004 1.15c-.234.473-.351.98-.351 1.522v.869c0 .741.128 1.37.383 1.886.26.511.62.901 1.081 1.169.46.265.995.397 1.604.397.396 0 .754-.056 1.074-.167a2.29 2.29 0 0 0 .837-.511c.235-.23.416-.516.544-.856l1.457.409a3.233 3.233 0 0 1-.774 1.304c-.362.37-.809.66-1.342.869-.533.204-1.131.307-1.796.307Zm-6.206-7.824-1.355.383a2.53 2.53 0 0 0-.378-.658 1.83 1.83 0 0 0-.664-.537c-.282-.141-.642-.211-1.081-.211-.6 0-1.101.139-1.502.416-.396.272-.594.62-.594 1.042 0 .375.136.671.409.888.273.217.699.398 1.278.543l1.458.358c.878.213 1.532.539 1.962.978.431.435.646.995.646 1.681 0 .563-.162 1.066-.486 1.509-.32.443-.767.793-1.342 1.048-.576.256-1.245.384-2.008.384-1.001 0-1.83-.218-2.486-.652-.656-.435-1.072-1.07-1.246-1.905l1.431-.358c.137.528.395.925.774 1.189.383.264.884.396 1.502.396.703 0 1.261-.149 1.675-.447.417-.303.626-.665.626-1.087a1.14 1.14 0 0 0-.358-.856c-.239-.235-.605-.41-1.099-.525l-1.637-.383c-.899-.213-1.559-.543-1.981-.991-.418-.452-.627-1.016-.627-1.694 0-.554.156-1.044.467-1.47.315-.426.744-.761 1.285-1.003.545-.243 1.163-.365 1.853-.365.972 0 1.735.213 2.289.639.558.427.954.989 1.189 1.688Zm-10.866 3.605v-5.804h1.508v9.818h-1.508v-1.662h-.103c-.23.499-.588.923-1.073 1.272-.486.345-1.1.518-1.841.518-.614 0-1.159-.134-1.637-.403-.477-.272-.852-.681-1.125-1.227-.272-.55-.409-1.242-.409-2.077v-6.239h1.509v6.136c0 .716.2 1.287.601 1.713.404.427.92.64 1.546.64a2.57 2.57 0 0 0 1.145-.288c.392-.192.72-.486.984-.882.268-.396.403-.901.403-1.515Zm-13.325 2.224-.102.691a14.08 14.08 0 0 1-.333 1.559 29.225 29.225 0 0 1-.454 1.566c-.157.491-.287.88-.39 1.17h-1.15l.217-1.08c.09-.447.179-.948.269-1.502.093-.55.17-1.112.23-1.688l.076-.716h1.637Zm-8.25 1.995c-.946 0-1.762-.209-2.448-.627a4.2 4.2 0 0 1-1.579-1.764c-.367-.758-.55-1.64-.55-2.646s.183-1.892.55-2.659c.37-.772.886-1.372 1.547-1.803.664-.434 1.44-.652 2.326-.652.512 0 1.017.085 1.515.256.499.17.953.447 1.362.831.409.379.735.882.978 1.508.243.627.364 1.398.364 2.314v.639h-7.568v-1.303h6.034c0-.554-.111-1.049-.332-1.483a2.514 2.514 0 0 0-.934-1.03c-.4-.251-.873-.377-1.419-.377-.601 0-1.12.149-1.559.448-.435.294-.77.677-1.004 1.15-.234.473-.351.98-.351 1.522v.869c0 .741.127 1.37.383 1.886.26.511.62.901 1.08 1.169.461.265.995.397 1.605.397.396 0 .754-.056 1.074-.167.323-.115.603-.285.837-.511.234-.23.415-.516.543-.856l1.458.409a3.244 3.244 0 0 1-.774 1.304c-.362.37-.809.66-1.342.869a4.993 4.993 0 0 1-1.796.307Zm-5.467-10.023v1.278h-5.292v-1.278h5.292Zm-3.707 9.818v-11.173c0-.563.132-1.031.396-1.406a2.456 2.456 0 0 1 1.029-.844 3.248 3.248 0 0 1 1.336-.281c.371 0 .674.029.908.089.234.06.409.115.524.166l-.435 1.304a9.342 9.342 0 0 0-.319-.096 1.955 1.955 0 0 0-.524-.057c-.499 0-.859.126-1.081.377-.217.251-.326.62-.326 1.106v10.815h-1.508Zm-7.558.23a3.996 3.996 0 0 1-1.694-.351 2.911 2.911 0 0 1-1.208-1.029c-.298-.452-.448-.998-.448-1.637 0-.562.111-1.018.333-1.368.221-.353.518-.63.888-.831.371-.2.78-.349 1.228-.447.451-.102.905-.183 1.361-.243.597-.077 1.08-.134 1.451-.173.375-.042.648-.112.818-.21.175-.098.262-.269.262-.512v-.051c0-.631-.172-1.121-.517-1.47-.341-.35-.859-.524-1.554-.524-.72 0-1.285.157-1.694.473-.409.315-.696.652-.863 1.01l-1.431-.512c.255-.596.596-1.061 1.022-1.393.431-.337.9-.571 1.407-.703a5.808 5.808 0 0 1 1.508-.205c.315 0 .678.039 1.087.115.413.073.812.224 1.195.454.388.23.71.577.965 1.042.256.464.384 1.087.384 1.866v6.469h-1.509v-1.329h-.076a2.671 2.671 0 0 1-.512.684c-.238.243-.556.449-.952.62-.397.17-.88.255-1.451.255Zm.23-1.355c.597 0 1.099-.117 1.508-.351a2.396 2.396 0 0 0 1.253-2.078v-1.38c-.064.076-.204.147-.422.21-.213.06-.46.113-.741.16a31.625 31.625 0 0 1-1.445.192 5.755 5.755 0 0 0-1.099.249 1.894 1.894 0 0 0-.818.505c-.205.222-.307.524-.307.908 0 .524.194.92.582 1.189.392.264.888.396 1.489.396Zm-5.209-6.494-1.355.383a2.526 2.526 0 0 0-.377-.658 1.841 1.841 0 0 0-.665-.537c-.281-.141-.641-.211-1.08-.211-.601 0-1.102.139-1.503.416-.396.272-.594.62-.594 1.042 0 .375.136.671.409.888.273.217.699.398 1.278.543l1.458.358c.878.213 1.532.539 1.962.978.431.435.646.995.646 1.681 0 .563-.162 1.066-.486 1.509-.32.443-.767.793-1.342 1.048-.576.256-1.245.384-2.007.384-1.002 0-1.831-.218-2.487-.652-.656-.435-1.072-1.07-1.246-1.905l1.431-.358c.137.528.395.925.774 1.189.383.264.884.396 1.502.396.703 0 1.261-.149 1.675-.447.417-.303.626-.665.626-1.087a1.14 1.14 0 0 0-.358-.856c-.238-.235-.605-.41-1.099-.525l-1.637-.383c-.899-.213-1.559-.543-1.981-.991-.418-.452-.627-1.016-.627-1.694 0-.554.156-1.044.467-1.47.315-.426.744-.761 1.285-1.003.545-.243 1.163-.365 1.854-.365.971 0 1.734.213 2.288.639.558.427.954.989 1.189 1.688Zm-13.747 0-1.355.383a2.526 2.526 0 0 0-.377-.658 1.841 1.841 0 0 0-.665-.537c-.281-.141-.641-.211-1.08-.211-.601 0-1.102.139-1.502.416-.397.272-.595.62-.595 1.042 0 .375.137.671.409.888.273.217.699.398 1.279.543l1.457.358c.878.213 1.532.539 1.962.978.431.435.646.995.646 1.681 0 .563-.162 1.066-.486 1.509-.319.443-.767.793-1.342 1.048-.575.256-1.244.384-2.007.384-1.002 0-1.83-.218-2.487-.652-.656-.435-1.071-1.07-1.246-1.905l1.432-.358c.136.528.394.925.773 1.189.384.264.884.396 1.502.396.703 0 1.262-.149 1.675-.447.418-.303.626-.665.626-1.087a1.14 1.14 0 0 0-.358-.856c-.238-.235-.605-.41-1.099-.525l-1.636-.383c-.9-.213-1.56-.543-1.982-.991-.418-.452-.626-1.016-.626-1.694 0-.554.155-1.044.466-1.47.316-.426.744-.761 1.285-1.003.546-.243 1.163-.365 1.854-.365.971 0 1.734.213 2.288.639a3.45 3.45 0 0 1 1.189 1.688Zm-10.866 7.619v-9.818h1.509v9.818h-1.509Zm.767-11.454c-.294 0-.548-.1-.761-.301a.967.967 0 0 1-.313-.722c0-.281.105-.522.313-.722a1.07 1.07 0 0 1 .761-.301c.294 0 .546.1.754.301.213.2.32.441.32.722a.956.956 0 0 1-.32.722c-.208.201-.46.301-.754.301Zm-15.03 11.454V358.94h1.585v11.685h6.086v1.406h-7.671Zm-11.154 0V358.94h4.424c1.022 0 1.862.175 2.518.524.656.346 1.142.821 1.458 1.426.315.605.473 1.293.473 2.064 0 .772-.158 1.456-.473 2.052-.316.597-.799 1.066-1.451 1.407-.652.336-1.486.505-2.5.505h-3.579v-1.432h3.528c.699 0 1.261-.103 1.688-.307.43-.205.741-.494.933-.869.196-.38.294-.831.294-1.356 0-.524-.098-.982-.294-1.374-.196-.392-.509-.694-.94-.907-.43-.218-.999-.326-1.706-.326h-2.787v11.684h-1.586Zm6.162-5.88 3.222 5.88h-1.841l-3.17-5.88h1.789Zm-10.552-7.211h1.585v8.668c0 .895-.211 1.694-.633 2.397a4.425 4.425 0 0 1-1.771 1.655c-.762.401-1.657.601-2.684.601-1.027 0-1.922-.2-2.685-.601a4.468 4.468 0 0 1-1.777-1.655c-.418-.703-.626-1.502-.626-2.397v-8.668h1.585v8.54c0 .639.14 1.208.422 1.707.281.494.682.884 1.201 1.169.525.282 1.151.422 1.88.422.728 0 1.355-.14 1.879-.422a2.97 2.97 0 0 0 1.202-1.169c.281-.499.422-1.068.422-1.707v-8.54Zm-19.499 13.296c-.946 0-1.762-.209-2.448-.627a4.214 4.214 0 0 1-1.579-1.764c-.366-.758-.549-1.64-.549-2.646s.183-1.892.549-2.659c.371-.772.887-1.372 1.547-1.803.665-.434 1.441-.652 2.327-.652.511 0 1.016.085 1.515.256.499.17.952.447 1.361.831.41.379.736.882.978 1.508.243.627.365 1.398.365 2.314v.639h-7.568v-1.303h6.034c0-.554-.111-1.049-.333-1.483a2.505 2.505 0 0 0-.933-1.03c-.4-.251-.873-.377-1.419-.377-.601 0-1.121.149-1.56.448a2.942 2.942 0 0 0-1.003 1.15c-.235.473-.352.98-.352 1.522v.869c0 .741.128 1.37.384 1.886.26.511.62.901 1.08 1.169.46.265.995.397 1.604.397.397 0 .755-.056 1.074-.167.324-.115.603-.285.838-.511.234-.23.415-.516.543-.856l1.457.409a3.23 3.23 0 0 1-.773 1.304c-.362.37-.81.66-1.342.869-.533.204-1.132.307-1.797.307Zm-12.882-6.111v5.906h-1.509V358.94h1.509v4.807h.128c.23-.507.575-.91 1.035-1.208.465-.303 1.082-.454 1.854-.454.669 0 1.255.134 1.758.403.502.264.892.671 1.169 1.221.282.545.422 1.24.422 2.084v6.238h-1.508v-6.136c0-.78-.203-1.383-.608-1.809-.4-.431-.956-.646-1.668-.646a2.78 2.78 0 0 0-1.329.314 2.282 2.282 0 0 0-.921.914c-.221.4-.332.886-.332 1.457Zm-3.629-3.912v1.278h-5.088v-1.278h5.088Zm-3.605-2.352h1.509v9.358c0 .426.061.745.185.959.128.208.29.349.486.421.2.069.411.103.633.103.166 0 .302-.009.409-.026l.255-.051.307 1.355a3.064 3.064 0 0 1-.428.115 3.132 3.132 0 0 1-.697.064c-.426 0-.844-.092-1.253-.275a2.488 2.488 0 0 1-1.01-.837c-.264-.375-.396-.848-.396-1.419v-9.767Zm-7.121 2.352v1.278h-5.293v-1.278h5.293Zm-3.708 9.818v-11.173c0-.563.132-1.031.396-1.406a2.46 2.46 0 0 1 1.03-.844 3.241 3.241 0 0 1 1.336-.281c.37 0 .673.029.907.089.235.06.409.115.524.166l-.434 1.304a10.305 10.305 0 0 0-.32-.096 1.955 1.955 0 0 0-.524-.057c-.499 0-.859.126-1.08.377-.218.251-.326.62-.326 1.106v10.815h-1.509Zm-3.278-13.091v13.091h-1.586V358.94h1.586Z" fill="#000"/><path d="M627.621 83.5c0 24.024-19.476 43.5-43.5 43.5s-43.5-19.476-43.5-43.5 19.476-43.5 43.5-43.5 43.5 19.476 43.5 43.5Z" fill="#fff"/><g clip-path="url(#clip0_381_1010)"><path d="M608.982 57.896h-49.72v49.72h49.72v-49.72Z" fill="#fff"/><path d="M576.664 100.158c-4.599 0-8.66-.663-11.477-1.678-1.43-.498-2.383-1.057-2.963-1.533-.373-.311-.456-.498-.476-.56v-6.525c1.326.683 2.962 1.263 4.765 1.72 2.921.703 6.422 1.118 10.151 1.118 2.051 0 4.019-.124 5.863-.373a11.813 11.813 0 0 1-.684-2.403c-1.637.186-3.377.29-5.179.29-3.646 0-6.878-.394-9.571-1.057-2.404-.6-4.227-1.367-5.345-2.196v-7.043c1.326.683 2.962 1.263 4.765 1.698 2.921.725 6.422 1.119 10.151 1.119 2.175 0 4.267-.145 6.215-.414a11.738 11.738 0 0 1 1.885-2.818c-2.382.477-5.138.746-8.1.746-3.646 0-6.878-.394-9.571-1.056-2.404-.601-4.227-1.368-5.345-2.197v-7.892s.124-.25.476-.56c.58-.476 1.533-1.036 2.963-1.533 2.817-1.015 6.878-1.678 11.477-1.678s8.659.663 11.477 1.678c1.429.497 2.382 1.057 2.962 1.533.352.31.456.497.477.56v6.422a12.338 12.338 0 0 1 2.486-.249v-6.215c0-3.439-7.79-6.215-17.402-6.215-9.613 0-17.402 2.797-17.402 6.236v27.346c0 3.439 7.789 6.215 17.402 6.215 6.111 0 11.456-1.119 14.564-2.818a12.23 12.23 0 0 1-3.294-1.284c-2.797.974-6.775 1.616-11.291 1.616h.021Z" fill="#000"/><path d="m608.609 100.531-6.733-6.733c1.306-1.678 2.114-3.77 2.114-6.07 0-5.49-4.455-9.944-9.944-9.944-3.253 0-6.112 1.574-7.914 3.977a9.78 9.78 0 0 0-2.03 5.967c0 .621.082 1.243.186 1.823.166.828.435 1.636.787 2.382 1.14 2.424 3.232 4.289 5.801 5.18a9.85 9.85 0 0 0 2.838.538c.104 0 .228.041.332.041 2.299 0 4.391-.807 6.07-2.113l6.732 6.733c.249.249.56.373.871.373.31 0 .642-.124.87-.373.248-.248.352-.559.373-.87 0-.331-.125-.642-.373-.891l.02-.02Zm-14.543-5.345c-.87 0-1.698-.187-2.486-.456-1.719-.6-3.107-1.823-3.998-3.377-.394-.725-.704-1.491-.849-2.34a6.576 6.576 0 0 1-.125-1.285c0-3.232 2.093-5.967 4.972-7.002.788-.27 1.616-.456 2.486-.456a7.453 7.453 0 0 1 7.458 7.458c0 4.122-3.356 7.458-7.458 7.458Z" fill="#000"/></g><path d="m687.429 168.085-1.355.384a2.515 2.515 0 0 0-.377-.659 1.841 1.841 0 0 0-.665-.537c-.281-.14-.641-.21-1.08-.21-.601 0-1.102.138-1.502.415-.397.273-.595.62-.595 1.042 0 .375.136.671.409.888.273.218.699.399 1.279.544l1.457.358c.878.213 1.532.539 1.962.978.431.434.646.995.646 1.681a2.49 2.49 0 0 1-.486 1.508c-.319.443-.767.793-1.342 1.049-.575.255-1.244.383-2.007.383-1.002 0-1.831-.217-2.487-.652-.656-.435-1.072-1.069-1.246-1.905l1.432-.358c.136.529.394.925.773 1.189.384.264.884.397 1.502.397.703 0 1.262-.15 1.675-.448.417-.302.626-.665.626-1.087 0-.34-.119-.626-.358-.856-.238-.234-.605-.409-1.099-.524l-1.636-.384c-.9-.213-1.56-.543-1.982-.991-.418-.451-.626-1.016-.626-1.693 0-.554.155-1.044.466-1.471.316-.426.744-.76 1.285-1.003.545-.243 1.163-.364 1.854-.364.971 0 1.734.213 2.288.639.558.426.955.988 1.189 1.687Zm-14.067 7.824c-.818 0-1.54-.207-2.167-.62-.626-.418-1.116-1.006-1.47-1.764-.354-.763-.53-1.664-.53-2.704 0-1.031.176-1.926.53-2.685.354-.758.846-1.344 1.477-1.757.63-.414 1.359-.62 2.186-.62.639 0 1.144.106 1.515.319.375.209.66.448.856.716.2.264.356.482.467.652h.128v-4.832h1.508v13.091h-1.457v-1.509h-.179a9.992 9.992 0 0 1-.473.678c-.205.268-.497.509-.876.722-.379.209-.884.313-1.515.313Zm.205-1.355c.605 0 1.116-.158 1.534-.473.417-.32.735-.761.952-1.323.217-.567.326-1.221.326-1.963 0-.733-.106-1.374-.319-1.924-.214-.554-.529-.984-.946-1.291-.418-.311-.934-.466-1.547-.466-.64 0-1.172.164-1.598.492-.422.324-.74.765-.953 1.323-.209.554-.313 1.176-.313 1.866 0 .699.107 1.334.32 1.905.217.567.537 1.019.958 1.355.427.333.955.499 1.586.499Zm-10.806 1.381a4 4 0 0 1-1.694-.352 2.917 2.917 0 0 1-1.208-1.029c-.298-.452-.447-.997-.447-1.636 0-.563.111-1.019.332-1.368.222-.354.518-.631.889-.831.371-.201.78-.35 1.227-.448.452-.102.906-.183 1.362-.243.596-.076 1.08-.134 1.451-.172.375-.043.647-.113.818-.211.174-.098.262-.269.262-.511v-.052c0-.63-.173-1.12-.518-1.47-.341-.349-.859-.524-1.553-.524-.72 0-1.285.158-1.694.473-.409.315-.697.652-.863 1.01l-1.432-.511c.256-.597.597-1.061 1.023-1.394.43-.336.899-.571 1.406-.703a5.856 5.856 0 0 1 1.509-.204c.315 0 .677.038 1.086.115.414.072.812.223 1.196.453.387.231.709.578.965 1.042.256.465.383 1.087.383 1.867v6.469h-1.508v-1.33h-.077c-.102.213-.273.441-.511.684-.239.243-.556.45-.953.62-.396.17-.88.256-1.451.256Zm.23-1.355c.597 0 1.1-.118 1.509-.352.413-.234.724-.537.933-.908.213-.37.32-.76.32-1.169v-1.381c-.064.077-.205.147-.422.211-.213.059-.46.113-.742.16-.277.042-.547.081-.811.115-.26.03-.471.055-.633.076a5.842 5.842 0 0 0-1.1.25 1.89 1.89 0 0 0-.818.505c-.204.221-.307.524-.307.907 0 .524.194.921.582 1.189.392.264.889.397 1.489.397Zm-14.934 1.329c-.818 0-1.54-.207-2.167-.62-.626-.418-1.116-1.006-1.47-1.764-.353-.763-.53-1.664-.53-2.704 0-1.031.177-1.926.53-2.685.354-.758.846-1.344 1.477-1.757.631-.414 1.359-.62 2.186-.62.639 0 1.144.106 1.515.319.375.209.66.448.856.716.201.264.356.482.467.652h.128v-4.832h1.508v13.091H651.1v-1.509h-.179a9.64 9.64 0 0 1-.473.678c-.205.268-.496.509-.876.722-.379.209-.884.313-1.515.313Zm.205-1.355c.605 0 1.116-.158 1.534-.473.418-.32.735-.761.952-1.323.218-.567.326-1.221.326-1.963 0-.733-.106-1.374-.319-1.924-.213-.554-.529-.984-.946-1.291-.418-.311-.933-.466-1.547-.466-.639 0-1.172.164-1.598.492-.422.324-.739.765-.953 1.323-.208.554-.313 1.176-.313 1.866 0 .699.107 1.334.32 1.905.217.567.537 1.019.959 1.355.426.333.954.499 1.585.499Zm-12.573-4.756v5.907h-1.508v-9.819h1.457v1.534h.128a2.8 2.8 0 0 1 1.048-1.201c.469-.307 1.074-.46 1.816-.46.664 0 1.246.136 1.745.409.498.268.886.677 1.163 1.227.277.545.415 1.236.415 2.071v6.239h-1.508v-6.137c0-.771-.2-1.372-.601-1.802-.401-.435-.95-.652-1.649-.652-.482 0-.912.104-1.291.313a2.245 2.245 0 0 0-.889.914c-.217.4-.326.886-.326 1.457Zm-8.402 6.137a4 4 0 0 1-1.694-.352 2.917 2.917 0 0 1-1.208-1.029c-.298-.452-.447-.997-.447-1.636 0-.563.111-1.019.332-1.368.222-.354.518-.631.889-.831.371-.201.78-.35 1.227-.448.452-.102.906-.183 1.362-.243.596-.076 1.08-.134 1.451-.172.375-.043.647-.113.818-.211.174-.098.262-.269.262-.511v-.052c0-.63-.173-1.12-.518-1.47-.341-.349-.859-.524-1.553-.524-.72 0-1.285.158-1.694.473-.409.315-.697.652-.863 1.01l-1.432-.511c.256-.597.597-1.061 1.023-1.394.43-.336.899-.571 1.406-.703a5.85 5.85 0 0 1 1.509-.204c.315 0 .677.038 1.086.115.414.072.812.223 1.196.453.387.231.709.578.965 1.042.255.465.383 1.087.383 1.867v6.469h-1.508v-1.33h-.077c-.102.213-.273.441-.511.684-.239.243-.556.45-.953.62-.396.17-.88.256-1.451.256Zm.23-1.355c.597 0 1.1-.118 1.509-.352.413-.234.724-.537.933-.908.213-.37.32-.76.32-1.169v-1.381c-.064.077-.205.147-.422.211-.213.059-.46.113-.742.16-.277.042-.547.081-.811.115-.26.03-.471.055-.633.076a5.842 5.842 0 0 0-1.1.25 1.89 1.89 0 0 0-.818.505c-.204.221-.307.524-.307.907 0 .524.194.921.582 1.189.392.264.889.397 1.489.397Zm-10.256-.665-.103.69a13.855 13.855 0 0 1-.332 1.56 29.225 29.225 0 0 1-.454 1.566c-.157.49-.287.88-.39 1.17h-1.15l.217-1.081c.09-.447.179-.948.269-1.502.093-.55.17-1.112.23-1.687l.076-.716h1.637Zm-4.34-5.83-1.355.384a2.515 2.515 0 0 0-.377-.659 1.841 1.841 0 0 0-.665-.537c-.281-.14-.641-.21-1.08-.21-.601 0-1.102.138-1.502.415-.397.273-.595.62-.595 1.042 0 .375.136.671.409.888.273.218.699.399 1.279.544l1.457.358c.878.213 1.532.539 1.962.978.431.434.646.995.646 1.681a2.49 2.49 0 0 1-.486 1.508c-.319.443-.767.793-1.342 1.049-.575.255-1.245.383-2.007.383-1.002 0-1.831-.217-2.487-.652-.656-.435-1.072-1.069-1.246-1.905l1.432-.358c.136.529.394.925.773 1.189.383.264.884.397 1.502.397.703 0 1.261-.15 1.675-.448.417-.302.626-.665.626-1.087 0-.34-.119-.626-.358-.856-.238-.234-.605-.409-1.099-.524l-1.637-.384c-.899-.213-1.559-.543-1.981-.991-.418-.451-.626-1.016-.626-1.693 0-.554.155-1.044.466-1.471.315-.426.744-.76 1.285-1.003.545-.243 1.163-.364 1.854-.364.971 0 1.734.213 2.288.639.558.426.955.988 1.189 1.687Zm-13.292 7.62v-9.819h1.458v1.483h.102a2.36 2.36 0 0 1 .971-1.182 2.86 2.86 0 0 1 1.586-.454c.11 0 .249.002.415.006.166.005.292.011.377.02v1.534a4.477 4.477 0 0 0-.351-.058 3.445 3.445 0 0 0-.569-.045c-.478 0-.904.1-1.279.301-.37.196-.664.469-.882.818a2.203 2.203 0 0 0-.319 1.182v6.214h-1.509Zm-6 .204c-.946 0-1.762-.209-2.448-.626a4.204 4.204 0 0 1-1.579-1.765c-.366-.758-.55-1.64-.55-2.646s.184-1.892.55-2.659c.371-.771.886-1.372 1.547-1.802.665-.435 1.44-.652 2.327-.652a4.67 4.67 0 0 1 1.515.255 3.77 3.77 0 0 1 1.361.831c.409.379.735.882.978 1.509.243.626.364 1.397.364 2.314v.639h-7.568v-1.304h6.034c0-.554-.111-1.048-.332-1.483a2.503 2.503 0 0 0-.933-1.029c-.401-.252-.874-.377-1.419-.377-.601 0-1.121.149-1.56.447a2.948 2.948 0 0 0-1.004 1.151c-.234.473-.351.98-.351 1.521v.869c0 .742.128 1.37.383 1.886.26.511.62.901 1.081 1.17.46.264.995.396 1.604.396.396 0 .754-.055 1.074-.166.324-.115.603-.286.837-.512.235-.23.416-.515.544-.856l1.457.409a3.23 3.23 0 0 1-.773 1.304c-.363.371-.81.66-1.343.869-.532.205-1.131.307-1.796.307Zm-11.737-3.784-.025-1.866h.306l4.296-4.373h1.866l-4.576 4.628h-.128l-1.739 1.611Zm-1.406 3.58v-13.091h1.508v13.091h-1.508Zm6.238 0-3.835-4.858 1.074-1.049 4.679 5.907h-1.918Zm-11.944.204c-.921 0-1.713-.217-2.378-.652-.665-.435-1.176-1.033-1.534-1.796-.358-.763-.537-1.634-.537-2.614 0-.998.183-1.878.55-2.64.37-.767.886-1.366 1.547-1.796.664-.435 1.44-.652 2.326-.652.691 0 1.313.127 1.867.383a3.573 3.573 0 0 1 1.361 1.074c.354.46.573.997.659 1.611h-1.509c-.115-.448-.371-.844-.767-1.189-.392-.35-.92-.524-1.585-.524-.588 0-1.104.153-1.547.46-.439.302-.782.731-1.029 1.285-.243.549-.365 1.195-.365 1.936 0 .759.12 1.419.358 1.982.243.562.584.999 1.023 1.31.443.311.963.467 1.56.467.392 0 .748-.068 1.067-.205.32-.136.59-.332.812-.588.222-.255.379-.562.473-.92h1.509a3.516 3.516 0 0 1-.633 1.566 3.54 3.54 0 0 1-1.323 1.099c-.546.269-1.181.403-1.905.403Zm-10.882.026a3.996 3.996 0 0 1-1.694-.352 2.911 2.911 0 0 1-1.208-1.029c-.299-.452-.448-.997-.448-1.636 0-.563.111-1.019.333-1.368.221-.354.517-.631.888-.831.371-.201.78-.35 1.227-.448.452-.102.906-.183 1.362-.243.597-.076 1.08-.134 1.451-.172.375-.043.648-.113.818-.211.175-.098.262-.269.262-.511v-.052c0-.63-.172-1.12-.518-1.47-.34-.349-.858-.524-1.553-.524-.72 0-1.285.158-1.694.473-.409.315-.696.652-.863 1.01l-1.431-.511c.255-.597.596-1.061 1.022-1.394a3.842 3.842 0 0 1 1.407-.703 5.849 5.849 0 0 1 1.508-.204c.315 0 .678.038 1.087.115.413.072.812.223 1.195.453.388.231.71.578.965 1.042.256.465.384 1.087.384 1.867v6.469h-1.509v-1.33h-.076a2.671 2.671 0 0 1-.512.684c-.238.243-.556.45-.952.62-.397.17-.88.256-1.451.256Zm.23-1.355c.596 0 1.099-.118 1.508-.352a2.389 2.389 0 0 0 1.253-2.077v-1.381c-.064.077-.204.147-.422.211a7.32 7.32 0 0 1-.741.16 36.76 36.76 0 0 1-.812.115c-.26.03-.471.055-.633.076a5.831 5.831 0 0 0-1.099.25 1.88 1.88 0 0 0-.818.505c-.205.221-.307.524-.307.907 0 .524.194.921.582 1.189.392.264.888.397 1.489.397Zm-9.457 1.125v-9.819h1.458v1.483h.102c.179-.485.503-.88.972-1.182a2.854 2.854 0 0 1 1.585-.454c.111 0 .249.002.415.006.166.005.292.011.377.02v1.534a4.477 4.477 0 0 0-.351-.058 3.445 3.445 0 0 0-.569-.045c-.477 0-.903.1-1.278.301a2.274 2.274 0 0 0-.883.818 2.203 2.203 0 0 0-.319 1.182v6.214h-1.509Zm-1.909-9.819v1.279h-5.088v-1.279h5.088Zm-3.605-2.352h1.509v9.358c0 .426.061.746.185.959.128.209.29.349.486.422.2.068.411.102.633.102.166 0 .302-.009.409-.026l.255-.051.307 1.355a2.93 2.93 0 0 1-.428.115 3.132 3.132 0 0 1-.697.064 3.04 3.04 0 0 1-1.253-.274 2.499 2.499 0 0 1-1.01-.838c-.264-.375-.396-.848-.396-1.419v-9.767Zm-7.802 10.381-.102.69a14.096 14.096 0 0 1-.333 1.56 29.225 29.225 0 0 1-.454 1.566c-.157.49-.287.88-.39 1.17h-1.15l.217-1.081c.09-.447.179-.948.269-1.502.093-.55.17-1.112.23-1.687l.076-.716h1.637Zm-4.34-5.83-1.355.384a2.515 2.515 0 0 0-.377-.659 1.841 1.841 0 0 0-.665-.537c-.281-.14-.641-.21-1.08-.21-.601 0-1.102.138-1.502.415-.397.273-.595.62-.595 1.042 0 .375.137.671.409.888.273.218.699.399 1.279.544l1.457.358c.878.213 1.532.539 1.962.978.431.434.646.995.646 1.681a2.49 2.49 0 0 1-.486 1.508c-.319.443-.767.793-1.342 1.049-.575.255-1.244.383-2.007.383-1.002 0-1.83-.217-2.487-.652-.656-.435-1.071-1.069-1.246-1.905l1.432-.358c.136.529.394.925.773 1.189.384.264.884.397 1.502.397.703 0 1.262-.15 1.675-.448.418-.302.626-.665.626-1.087 0-.34-.119-.626-.358-.856-.238-.234-.605-.409-1.099-.524l-1.636-.384c-.9-.213-1.56-.543-1.982-.991-.418-.451-.626-1.016-.626-1.693 0-.554.155-1.044.466-1.471.316-.426.744-.76 1.285-1.003.546-.243 1.163-.364 1.854-.364.971 0 1.734.213 2.288.639.558.426.955.988 1.189 1.687Zm-8.688-2.199v1.279h-5.088v-1.279h5.088Zm-3.605-2.352h1.509v9.358c0 .426.061.746.185.959.128.209.29.349.486.422.2.068.411.102.633.102.166 0 .302-.009.409-.026l.255-.051.307 1.355a2.93 2.93 0 0 1-.428.115 3.132 3.132 0 0 1-.697.064 3.04 3.04 0 0 1-1.253-.274 2.499 2.499 0 0 1-1.01-.838c-.264-.375-.396-.848-.396-1.419v-9.767Zm-7.558 12.401a3.996 3.996 0 0 1-1.694-.352 2.911 2.911 0 0 1-1.208-1.029c-.298-.452-.448-.997-.448-1.636 0-.563.111-1.019.333-1.368.221-.354.518-.631.888-.831.371-.201.78-.35 1.228-.448.451-.102.905-.183 1.361-.243.597-.076 1.08-.134 1.451-.172.375-.043.648-.113.818-.211.175-.098.262-.269.262-.511v-.052c0-.63-.172-1.12-.517-1.47-.341-.349-.859-.524-1.554-.524-.72 0-1.284.158-1.694.473-.409.315-.696.652-.862 1.01l-1.432-.511c.255-.597.596-1.061 1.022-1.394a3.85 3.85 0 0 1 1.407-.703 5.849 5.849 0 0 1 1.508-.204c.316 0 .678.038 1.087.115.413.072.812.223 1.195.453.388.231.71.578.965 1.042.256.465.384 1.087.384 1.867v6.469h-1.509v-1.33h-.076a2.671 2.671 0 0 1-.512.684c-.238.243-.556.45-.952.62-.396.17-.88.256-1.451.256Zm.23-1.355c.597 0 1.099-.118 1.509-.352a2.393 2.393 0 0 0 1.252-2.077v-1.381c-.064.077-.204.147-.422.211a7.32 7.32 0 0 1-.741.16 36.76 36.76 0 0 1-.812.115c-.26.03-.471.055-.633.076a5.831 5.831 0 0 0-1.099.25c-.337.11-.609.279-.818.505-.205.221-.307.524-.307.907 0 .524.194.921.582 1.189.392.264.888.397 1.489.397Zm-9.119 1.329c-.946 0-1.762-.209-2.449-.626a4.202 4.202 0 0 1-1.578-1.765c-.367-.758-.55-1.64-.55-2.646s.183-1.892.55-2.659c.37-.771.886-1.372 1.546-1.802.665-.435 1.441-.652 2.327-.652a4.66 4.66 0 0 1 1.515.255c.499.171.953.448 1.362.831.409.379.735.882.978 1.509.242.626.364 1.397.364 2.314v.639h-7.568v-1.304h6.034c0-.554-.111-1.048-.333-1.483a2.496 2.496 0 0 0-.933-1.029c-.4-.252-.873-.377-1.419-.377-.601 0-1.121.149-1.559.447a2.94 2.94 0 0 0-1.004 1.151c-.234.473-.352.98-.352 1.521v.869c0 .742.128 1.37.384 1.886.26.511.62.901 1.08 1.17.46.264.995.396 1.605.396.396 0 .754-.055 1.073-.166.324-.115.603-.286.838-.512.234-.23.415-.515.543-.856l1.458.409a3.244 3.244 0 0 1-.774 1.304c-.362.371-.81.66-1.342.869-.533.205-1.132.307-1.796.307Zm-10.155-.204v-9.819h1.457v1.483h.102c.179-.485.503-.88.972-1.182a2.856 2.856 0 0 1 1.585-.454c.111 0 .249.002.416.006.166.005.292.011.377.02v1.534a4.535 4.535 0 0 0-.352-.058 3.436 3.436 0 0 0-.569-.045c-.477 0-.903.1-1.278.301a2.264 2.264 0 0 0-.882.818c-.213.345-.32.739-.32 1.182v6.214h-1.508Zm-8.767-5.907v5.907h-1.508v-13.091h1.508v4.806h.128c.23-.507.576-.909 1.036-1.208.464-.302 1.082-.453 1.853-.453.67 0 1.255.134 1.758.402.503.264.893.671 1.17 1.221.281.546.422 1.24.422 2.084v6.239h-1.509v-6.137c0-.78-.202-1.383-.607-1.809-.4-.43-.957-.645-1.668-.645-.495 0-.938.104-1.33.313a2.286 2.286 0 0 0-.92.914c-.222.4-.333.886-.333 1.457Zm-3.628-3.912v1.279h-5.088v-1.279h5.088Zm-3.605-2.352h1.508v9.358c0 .426.062.746.186.959a.958.958 0 0 0 .485.422c.201.068.412.102.633.102.166 0 .303-.009.409-.026l.256-.051.307 1.355a2.95 2.95 0 0 1-.429.115 3.122 3.122 0 0 1-.696.064 3.04 3.04 0 0 1-1.253-.274 2.492 2.492 0 0 1-1.01-.838c-.264-.375-.396-.848-.396-1.419v-9.767Zm183.403-11.829v-9.819h1.457v1.483h.102c.179-.485.503-.88.972-1.182a2.856 2.856 0 0 1 1.585-.454c.111 0 .25.002.416.006.166.005.292.011.377.02v1.534a4.446 4.446 0 0 0-.352-.058 3.436 3.436 0 0 0-.569-.045c-.477 0-.903.1-1.278.301a2.264 2.264 0 0 0-.882.818c-.213.345-.32.739-.32 1.182v6.214h-1.508Zm-6.392.204c-.886 0-1.664-.211-2.333-.633-.665-.422-1.185-1.012-1.56-1.77-.37-.759-.556-1.645-.556-2.659 0-1.023.186-1.916.556-2.679.375-.762.895-1.355 1.56-1.777.669-.422 1.447-.632 2.333-.632.887 0 1.662.21 2.327.632.669.422 1.189 1.015 1.56 1.777.375.763.562 1.656.562 2.679 0 1.014-.187 1.9-.562 2.659-.371.758-.891 1.348-1.56 1.77-.665.422-1.44.633-2.327.633Zm0-1.355c.674 0 1.227-.173 1.662-.518.435-.345.757-.799.965-1.361a5.21 5.21 0 0 0 .314-1.828c0-.657-.105-1.268-.314-1.835a3.078 3.078 0 0 0-.965-1.374c-.435-.35-.988-.524-1.662-.524-.673 0-1.227.174-1.662.524a3.094 3.094 0 0 0-.965 1.374 5.262 5.262 0 0 0-.313 1.835c0 .656.104 1.265.313 1.828.209.562.531 1.016.965 1.361.435.345.989.518 1.662.518Zm-5.338-8.668v1.279H648.5v-1.279h5.293Zm-3.708 9.819v-11.174c0-.562.132-1.031.397-1.406a2.458 2.458 0 0 1 1.029-.844 3.26 3.26 0 0 1 1.336-.281c.37 0 .673.03.907.089.235.06.409.116.525.167l-.435 1.304a6.354 6.354 0 0 0-.32-.096 1.91 1.91 0 0 0-.524-.058c-.498 0-.859.126-1.08.377-.217.252-.326.62-.326 1.106v10.816h-1.509Zm-7.457-7.62-1.355.384a2.515 2.515 0 0 0-.377-.659 1.833 1.833 0 0 0-.665-.537c-.281-.14-.641-.211-1.08-.211-.601 0-1.102.139-1.502.416-.396.273-.595.62-.595 1.042 0 .375.137.671.41.888.272.218.698.399 1.278.544l1.457.358c.878.213 1.532.539 1.963.978.43.434.645.995.645 1.681 0 .562-.162 1.065-.485 1.508-.32.443-.768.793-1.343 1.049-.575.255-1.244.383-2.007.383-1.001 0-1.83-.217-2.486-.652-.657-.435-1.072-1.069-1.247-1.905l1.432-.358c.136.529.394.925.773 1.189.384.264.885.397 1.503.397.703 0 1.261-.15 1.674-.448.418-.302.627-.665.627-1.087 0-.34-.12-.626-.358-.856-.239-.234-.605-.409-1.1-.524l-1.636-.384c-.899-.213-1.56-.543-1.982-.991-.417-.451-.626-1.016-.626-1.693 0-.554.155-1.044.467-1.471.315-.426.743-.76 1.284-1.003.546-.243 1.164-.364 1.854-.364.972 0 1.734.213 2.288.639.559.426.955.988 1.189 1.687Zm-14.979 4.04-.026-1.866h.307l4.296-4.373h1.866l-4.577 4.628h-.127l-1.739 1.611Zm-1.406 3.58v-13.091h1.508v13.091h-1.508Zm6.238 0-3.835-4.858 1.074-1.049 4.679 5.907h-1.918Zm-11.944.204c-.921 0-1.713-.217-2.378-.652-.665-.435-1.176-1.033-1.534-1.796-.358-.763-.537-1.634-.537-2.614 0-.998.183-1.878.55-2.64.37-.767.886-1.366 1.546-1.796.665-.435 1.441-.652 2.327-.652.69 0 1.313.127 1.867.383a3.58 3.58 0 0 1 1.361 1.074c.354.46.573.997.658 1.611h-1.508c-.115-.448-.371-.844-.767-1.189-.392-.35-.921-.524-1.585-.524-.588 0-1.104.153-1.547.46-.439.302-.782.731-1.029 1.285-.243.549-.365 1.195-.365 1.936 0 .759.12 1.419.358 1.982.243.562.584.999 1.023 1.31.443.311.963.467 1.56.467.392 0 .748-.068 1.067-.205.32-.136.59-.332.812-.588.222-.255.379-.562.473-.92h1.508a3.503 3.503 0 0 1-.632 1.566 3.54 3.54 0 0 1-1.323 1.099c-.546.269-1.181.403-1.905.403Zm-9.989 0c-.946 0-1.762-.209-2.448-.626a4.204 4.204 0 0 1-1.579-1.765c-.366-.758-.55-1.64-.55-2.646s.184-1.892.55-2.659c.371-.771.886-1.372 1.547-1.802.665-.435 1.44-.652 2.327-.652a4.66 4.66 0 0 1 1.514.255c.499.171.953.448 1.362.831.409.379.735.882.978 1.509.243.626.364 1.397.364 2.314v.639h-7.568v-1.304h6.034c0-.554-.111-1.048-.332-1.483a2.503 2.503 0 0 0-.933-1.029c-.401-.252-.874-.377-1.419-.377-.601 0-1.121.149-1.56.447a2.948 2.948 0 0 0-1.004 1.151c-.234.473-.351.98-.351 1.521v.869c0 .742.128 1.37.383 1.886.26.511.62.901 1.081 1.17.46.264.995.396 1.604.396.396 0 .754-.055 1.074-.166.324-.115.603-.286.837-.512.235-.23.416-.515.544-.856l1.457.409a3.233 3.233 0 0 1-.774 1.304c-.362.371-.809.66-1.342.869-.533.205-1.131.307-1.796.307Zm-12.883-6.111v5.907h-1.508v-13.091h1.508v4.806h.128c.23-.507.575-.909 1.036-1.208.464-.302 1.082-.453 1.853-.453.669 0 1.255.134 1.758.402.503.264.893.671 1.17 1.221.281.546.422 1.24.422 2.084v6.239h-1.509v-6.137c0-.78-.202-1.383-.607-1.809-.401-.43-.957-.645-1.668-.645-.495 0-.938.104-1.33.313a2.28 2.28 0 0 0-.92.914c-.222.4-.333.886-.333 1.457Zm-7.214 6.111c-.921 0-1.713-.217-2.378-.652-.665-.435-1.176-1.033-1.534-1.796-.358-.763-.537-1.634-.537-2.614 0-.998.183-1.878.55-2.64.37-.767.886-1.366 1.546-1.796.665-.435 1.441-.652 2.327-.652.69 0 1.313.127 1.867.383a3.58 3.58 0 0 1 1.361 1.074c.354.46.573.997.658 1.611h-1.508c-.115-.448-.371-.844-.767-1.189-.392-.35-.921-.524-1.585-.524-.588 0-1.104.153-1.547.46-.439.302-.782.731-1.029 1.285-.243.549-.365 1.195-.365 1.936 0 .759.12 1.419.358 1.982.243.562.584.999 1.023 1.31.443.311.963.467 1.56.467.392 0 .748-.068 1.067-.205.32-.136.59-.332.812-.588.222-.255.379-.562.473-.92h1.508a3.503 3.503 0 0 1-.632 1.566 3.54 3.54 0 0 1-1.323 1.099c-.546.269-1.181.403-1.905.403Zm-17.379 3.477c-.256 0-.484-.021-.684-.064a1.755 1.755 0 0 1-.416-.115l.384-1.329c.366.094.69.128.971.102.282-.025.531-.151.748-.377.222-.222.424-.582.607-1.08l.282-.767-3.631-9.87h1.636l2.711 7.824h.102l2.71-7.824h1.636l-4.167 11.25c-.188.507-.42.927-.697 1.26a2.609 2.609 0 0 1-.965.747 2.973 2.973 0 0 1-1.227.243Zm-9.208-13.5 2.353 4.015 2.352-4.015h1.738l-3.17 4.909 3.17 4.91h-1.738l-2.352-3.81-2.353 3.81h-1.738l3.119-4.91-3.119-4.909h1.738Zm-7.112 10.023c-.886 0-1.664-.211-2.333-.633-.665-.422-1.185-1.012-1.56-1.77-.37-.759-.556-1.645-.556-2.659 0-1.023.186-1.916.556-2.679.375-.762.895-1.355 1.56-1.777.669-.422 1.447-.632 2.333-.632.886 0 1.662.21 2.327.632.669.422 1.189 1.015 1.559 1.777.375.763.563 1.656.563 2.679 0 1.014-.188 1.9-.563 2.659-.37.758-.89 1.348-1.559 1.77-.665.422-1.441.633-2.327.633Zm0-1.355c.673 0 1.227-.173 1.662-.518.435-.345.756-.799.965-1.361a5.21 5.21 0 0 0 .313-1.828c0-.657-.104-1.268-.313-1.835a3.086 3.086 0 0 0-.965-1.374c-.435-.35-.989-.524-1.662-.524-.673 0-1.227.174-1.662.524a3.086 3.086 0 0 0-.965 1.374 5.262 5.262 0 0 0-.313 1.835c0 .656.104 1.265.313 1.828.209.562.53 1.016.965 1.361.435.345.989.518 1.662.518Zm-10.027 1.151v-9.819h1.457v1.483h.103c.179-.485.502-.88.971-1.182a2.856 2.856 0 0 1 1.585-.454c.111 0 .25.002.416.006.166.005.292.011.377.02v1.534a4.446 4.446 0 0 0-.352-.058 3.432 3.432 0 0 0-.568-.045c-.478 0-.904.1-1.279.301a2.264 2.264 0 0 0-.882.818c-.213.345-.32.739-.32 1.182v6.214h-1.508Zm-10.609 3.681v-13.5h1.458v1.56h.179c.11-.17.264-.388.46-.652.2-.268.486-.507.856-.716.375-.213.882-.319 1.522-.319.826 0 1.555.206 2.186.62.63.413 1.123.999 1.476 1.757.354.759.531 1.654.531 2.685 0 1.04-.177 1.941-.531 2.704-.353.758-.843 1.346-1.47 1.764-.626.413-1.349.62-2.167.62-.63 0-1.135-.104-1.515-.313-.379-.213-.671-.454-.875-.722a9.311 9.311 0 0 1-.473-.678h-.128v5.19h-1.509Zm1.483-8.591c0 .742.109 1.396.326 1.963.217.562.535 1.003.953 1.323.417.315.929.473 1.534.473.63 0 1.157-.166 1.578-.499.427-.336.746-.788.959-1.355.218-.571.326-1.206.326-1.905 0-.69-.106-1.312-.319-1.866-.209-.558-.527-.999-.953-1.323-.422-.328-.952-.492-1.591-.492-.614 0-1.13.155-1.547.466-.418.307-.733.737-.946 1.291-.213.55-.32 1.191-.32 1.924Zm-12.185 5.114c-.946 0-1.762-.209-2.449-.626a4.202 4.202 0 0 1-1.578-1.765c-.367-.758-.55-1.64-.55-2.646s.183-1.892.55-2.659c.37-.771.886-1.372 1.546-1.802.665-.435 1.441-.652 2.327-.652a4.66 4.66 0 0 1 1.515.255c.499.171.953.448 1.362.831.409.379.735.882.978 1.509.242.626.364 1.397.364 2.314v.639h-7.568v-1.304h6.034c0-.554-.111-1.048-.333-1.483a2.496 2.496 0 0 0-.933-1.029c-.4-.252-.873-.377-1.419-.377-.601 0-1.121.149-1.559.447a2.94 2.94 0 0 0-1.004 1.151c-.234.473-.352.98-.352 1.521v.869c0 .742.128 1.37.384 1.886.26.511.62.901 1.08 1.17.46.264.995.396 1.605.396.396 0 .754-.055 1.073-.166.324-.115.603-.286.838-.512.234-.23.415-.515.543-.856l1.458.409a3.244 3.244 0 0 1-.774 1.304c-.362.371-.81.66-1.342.869-.533.205-1.132.307-1.796.307Zm-12.883-6.111v5.907h-1.509v-13.091h1.509v4.806h.128a2.78 2.78 0 0 1 1.035-1.208c.465-.302 1.083-.453 1.854-.453.669 0 1.255.134 1.758.402.503.264.892.671 1.169 1.221.282.546.422 1.24.422 2.084v6.239h-1.508v-6.137c0-.78-.203-1.383-.607-1.809-.401-.43-.957-.645-1.669-.645a2.78 2.78 0 0 0-1.329.313 2.288 2.288 0 0 0-.921.914c-.221.4-.332.886-.332 1.457Zm-13.209-5.778v-1.406h9.818v1.406h-4.116v11.685h-1.585V140.02h-4.117Z" fill="#000"/><path d="M381.121 83.5c0 24.024-19.476 43.5-43.5 43.5s-43.5-19.476-43.5-43.5 19.476-43.5 43.5-43.5 43.5 19.476 43.5 43.5Z" fill="#fff"/><path d="M342.89 64.019a1.242 1.242 0 0 1-.078 1.755l-4.459 4.053h5.484a8.697 8.697 0 0 1 8.701 8.7v12.555a6.217 6.217 0 0 1 4.972 6.09 6.214 6.214 0 0 1-6.215 6.216 6.214 6.214 0 0 1-6.215-6.215 6.218 6.218 0 0 1 4.972-6.091V78.528a6.213 6.213 0 0 0-6.215-6.215h-5.484l4.459 4.055c.505.458.544 1.243.078 1.756a1.241 1.241 0 0 1-1.756.077l-6.837-6.215a1.242 1.242 0 0 1 0-1.836l6.837-6.215a1.243 1.243 0 0 1 1.756.084Zm8.405 29.425a3.73 3.73 0 0 0 0 7.458 3.73 3.73 0 0 0 0-7.458Zm-26.103-2.362a6.217 6.217 0 0 1 4.972 6.09 6.215 6.215 0 1 1-7.458-6.09V75.917c-2.837-.645-4.972-3.084-4.972-6.09a6.215 6.215 0 0 1 12.43 0c0 3.006-2.136 5.445-4.972 6.09v15.165Zm-1.243-24.984a3.73 3.73 0 1 0 0 7.458 3.73 3.73 0 0 0 0-7.458Zm0 27.346a3.73 3.73 0 1 0 .002 7.46 3.73 3.73 0 0 0-.002-7.46Zm95.995 71.829v1.278h-5.089v-1.278h5.089Zm-3.606-2.353h1.509v9.358c0 .427.062.746.185.959.128.209.29.35.486.422.2.068.411.102.633.102.166 0 .303-.008.409-.025l.256-.051.307 1.355a3.233 3.233 0 0 1-.429.115 3.183 3.183 0 0 1-.696.064c-.427 0-.844-.092-1.253-.275a2.482 2.482 0 0 1-1.01-.837c-.264-.375-.397-.848-.397-1.419v-9.768Zm-2.754 4.552-1.355.383a2.51 2.51 0 0 0-.377-.658 1.82 1.82 0 0 0-.665-.537c-.281-.141-.641-.211-1.08-.211-.601 0-1.102.138-1.502.415-.397.273-.595.62-.595 1.042 0 .375.136.671.409.889.273.217.699.398 1.279.543l1.457.358c.878.213 1.532.539 1.962.978.431.435.646.995.646 1.681 0 .563-.162 1.065-.486 1.509-.319.443-.767.792-1.342 1.048-.576.256-1.245.383-2.007.383-1.002 0-1.831-.217-2.487-.652-.656-.434-1.072-1.069-1.246-1.904l1.432-.358c.136.528.394.924.773 1.189.384.264.884.396 1.502.396.703 0 1.261-.149 1.675-.448.417-.302.626-.664.626-1.086 0-.341-.119-.627-.358-.857-.238-.234-.605-.409-1.099-.524l-1.637-.383c-.899-.213-1.559-.544-1.981-.991-.418-.452-.626-1.016-.626-1.694 0-.554.155-1.044.466-1.47.316-.426.744-.761 1.285-1.004.545-.243 1.163-.364 1.854-.364.971 0 1.734.213 2.288.639.558.426.955.989 1.189 1.688Zm-12.955 7.823c-.946 0-1.762-.208-2.448-.626a4.207 4.207 0 0 1-1.579-1.764c-.366-.759-.549-1.641-.549-2.646 0-1.006.183-1.893.549-2.66.371-.771.887-1.372 1.547-1.802.665-.435 1.441-.652 2.327-.652.511 0 1.016.085 1.515.256.498.17.952.447 1.361.831.409.379.735.882.978 1.508s.365 1.398.365 2.314v.639h-7.569v-1.304h6.035c0-.554-.111-1.048-.333-1.483a2.508 2.508 0 0 0-.933-1.029c-.401-.251-.874-.377-1.419-.377-.601 0-1.121.149-1.56.447a2.945 2.945 0 0 0-1.003 1.151c-.235.473-.352.98-.352 1.521v.87c0 .741.128 1.37.384 1.885.26.512.62.902 1.08 1.17.46.264.995.396 1.604.396.397 0 .755-.055 1.074-.166.324-.115.603-.285.838-.511a2.33 2.33 0 0 0 .543-.857l1.457.409a3.224 3.224 0 0 1-.773 1.304c-.362.371-.81.661-1.343.87-.532.204-1.131.306-1.796.306Zm-8.028-4.218v-5.804h1.509v9.818h-1.509v-1.662h-.102c-.23.499-.588.923-1.074 1.272-.486.345-1.099.518-1.841.518-.613 0-1.159-.134-1.636-.403-.477-.273-.852-.682-1.125-1.227-.273-.55-.409-1.242-.409-2.078v-6.238h1.508v6.136c0 .716.201 1.287.601 1.713.405.426.921.639 1.547.639.375 0 .756-.096 1.144-.287.392-.192.72-.486.985-.882.268-.397.402-.902.402-1.515Zm-10.097 7.696v-5.191h-.128a9.64 9.64 0 0 1-.473.678c-.204.268-.496.509-.876.722-.379.209-.884.313-1.515.313-.818 0-1.54-.206-2.166-.62-.627-.417-1.117-1.005-1.471-1.764-.353-.763-.53-1.664-.53-2.704 0-1.031.177-1.926.53-2.684.354-.759.846-1.345 1.477-1.758.631-.413 1.359-.62 2.186-.62.639 0 1.144.106 1.515.32.375.208.66.447.856.715.201.265.356.482.467.652h.179v-1.559h1.457v13.5h-1.508Zm-2.787-4.833c.605 0 1.116-.157 1.534-.473.418-.319.735-.76.953-1.323.217-.567.326-1.221.326-1.962 0-.733-.107-1.374-.32-1.924-.213-.554-.529-.985-.946-1.291-.418-.311-.933-.467-1.547-.467-.639 0-1.172.164-1.598.492-.422.324-.739.765-.952 1.323-.209.554-.314 1.176-.314 1.867 0 .699.107 1.334.32 1.905.217.566.537 1.018.959 1.355.426.332.954.498 1.585.498Zm-9.912 1.355c-.946 0-1.762-.208-2.448-.626a4.207 4.207 0 0 1-1.579-1.764c-.366-.759-.55-1.641-.55-2.646 0-1.006.184-1.893.55-2.66.371-.771.886-1.372 1.547-1.802.665-.435 1.44-.652 2.327-.652.511 0 1.016.085 1.514.256.499.17.953.447 1.362.831.409.379.735.882.978 1.508s.364 1.398.364 2.314v.639h-7.568v-1.304h6.034c0-.554-.111-1.048-.332-1.483a2.515 2.515 0 0 0-.933-1.029c-.401-.251-.874-.377-1.419-.377-.601 0-1.121.149-1.56.447a2.948 2.948 0 0 0-1.004 1.151c-.234.473-.351.98-.351 1.521v.87c0 .741.128 1.37.383 1.885.26.512.62.902 1.081 1.17.46.264.995.396 1.604.396.396 0 .754-.055 1.074-.166a2.29 2.29 0 0 0 .837-.511c.235-.23.416-.516.544-.857l1.457.409a3.215 3.215 0 0 1-.774 1.304 3.764 3.764 0 0 1-1.342.87c-.533.204-1.131.306-1.796.306Zm-10.155-.204v-9.818h1.457v1.483h.103c.179-.486.503-.88.971-1.183a2.865 2.865 0 0 1 1.586-.454 14.017 14.017 0 0 1 .792.026v1.534a4.477 4.477 0 0 0-.351-.058 3.56 3.56 0 0 0-.569-.044c-.478 0-.904.1-1.279.3-.37.196-.664.469-.882.818-.213.345-.319.74-.319 1.183v6.213h-1.509Zm-10.703.204c-.946 0-1.762-.208-2.448-.626a4.205 4.205 0 0 1-1.578-1.764c-.367-.759-.55-1.641-.55-2.646 0-1.006.183-1.893.55-2.66.37-.771.886-1.372 1.546-1.802.665-.435 1.441-.652 2.327-.652.511 0 1.016.085 1.515.256.499.17.952.447 1.362.831.409.379.735.882.977 1.508.243.626.365 1.398.365 2.314v.639h-7.568v-1.304h6.034c0-.554-.111-1.048-.333-1.483a2.508 2.508 0 0 0-.933-1.029c-.4-.251-.873-.377-1.419-.377-.601 0-1.121.149-1.56.447a2.945 2.945 0 0 0-1.003 1.151c-.235.473-.352.98-.352 1.521v.87c0 .741.128 1.37.384 1.885.26.512.62.902 1.08 1.17.46.264.995.396 1.604.396.397 0 .755-.055 1.074-.166.324-.115.603-.285.838-.511a2.33 2.33 0 0 0 .543-.857l1.457.409a3.224 3.224 0 0 1-.773 1.304c-.362.371-.81.661-1.342.87-.533.204-1.132.306-1.797.306Zm-12.882-6.11v5.906h-1.509V162h1.509v4.807h.128c.23-.507.575-.91 1.035-1.208.465-.303 1.083-.454 1.854-.454.669 0 1.255.134 1.758.403.502.264.892.671 1.169 1.22.282.546.422 1.241.422 2.084v6.239h-1.508v-6.136c0-.78-.203-1.383-.608-1.809-.4-.431-.956-.646-1.668-.646a2.78 2.78 0 0 0-1.329.313 2.294 2.294 0 0 0-.921.914c-.221.401-.332.887-.332 1.458Zm-3.629-3.912v1.278h-5.088v-1.278h5.088Zm-3.605-2.353h1.509v9.358c0 .427.061.746.185.959.128.209.29.35.486.422.2.068.411.102.633.102.166 0 .302-.008.409-.025l.255-.051.307 1.355a3.211 3.211 0 0 1-.428.115 3.193 3.193 0 0 1-.697.064c-.426 0-.844-.092-1.253-.275a2.488 2.488 0 0 1-1.01-.837c-.264-.375-.396-.848-.396-1.419v-9.768Zm-7.457 4.552-1.355.383a2.51 2.51 0 0 0-.377-.658 1.82 1.82 0 0 0-.665-.537c-.281-.141-.641-.211-1.08-.211-.601 0-1.102.138-1.502.415-.397.273-.595.62-.595 1.042 0 .375.136.671.409.889.273.217.699.398 1.279.543l1.457.358c.878.213 1.532.539 1.962.978.431.435.646.995.646 1.681 0 .563-.162 1.065-.486 1.509-.319.443-.767.792-1.342 1.048-.575.256-1.244.383-2.007.383-1.002 0-1.831-.217-2.487-.652-.656-.434-1.071-1.069-1.246-1.904l1.432-.358c.136.528.394.924.773 1.189.384.264.884.396 1.502.396.703 0 1.262-.149 1.675-.448.418-.302.626-.664.626-1.086 0-.341-.119-.627-.358-.857-.238-.234-.605-.409-1.099-.524l-1.636-.383c-.9-.213-1.56-.544-1.982-.991-.418-.452-.626-1.016-.626-1.694 0-.554.155-1.044.466-1.47.316-.426.744-.761 1.285-1.004.545-.243 1.163-.364 1.854-.364.971 0 1.734.213 2.288.639.558.426.955.989 1.189 1.688Zm-12.955 7.823c-.946 0-1.762-.208-2.448-.626a4.207 4.207 0 0 1-1.579-1.764c-.366-.759-.549-1.641-.549-2.646 0-1.006.183-1.893.549-2.66.371-.771.887-1.372 1.547-1.802.665-.435 1.441-.652 2.327-.652.511 0 1.016.085 1.515.256.498.17.952.447 1.361.831.409.379.735.882.978 1.508s.365 1.398.365 2.314v.639h-7.568v-1.304h6.034c0-.554-.111-1.048-.333-1.483a2.508 2.508 0 0 0-.933-1.029c-.401-.251-.874-.377-1.419-.377-.601 0-1.121.149-1.56.447a2.945 2.945 0 0 0-1.003 1.151c-.235.473-.352.98-.352 1.521v.87c0 .741.128 1.37.384 1.885.26.512.62.902 1.08 1.17.46.264.995.396 1.604.396.397 0 .755-.055 1.074-.166.324-.115.603-.285.838-.511a2.33 2.33 0 0 0 .543-.857l1.457.409a3.224 3.224 0 0 1-.773 1.304c-.362.371-.81.661-1.342.87-.533.204-1.132.306-1.797.306Zm-5.396-10.022-3.63 9.818h-1.534l-3.631-9.818h1.636l2.71 7.824h.103l2.71-7.824h1.636Zm-11.94 9.818v-9.818h1.509v9.818h-1.509Zm.767-11.455c-.294 0-.547-.1-.76-.3a.964.964 0 0 1-.313-.722c0-.282.104-.522.313-.723.213-.2.466-.3.76-.3.295 0 .546.1.755.3a.957.957 0 0 1 .319.723.955.955 0 0 1-.319.722c-.209.2-.46.3-.755.3Zm-6.767 11.659c-.946 0-1.762-.208-2.448-.626a4.207 4.207 0 0 1-1.579-1.764c-.366-.759-.549-1.641-.549-2.646 0-1.006.183-1.893.549-2.66.371-.771.887-1.372 1.547-1.802.665-.435 1.441-.652 2.327-.652.511 0 1.016.085 1.515.256.498.17.952.447 1.361.831.409.379.735.882.978 1.508s.365 1.398.365 2.314v.639h-7.568v-1.304h6.034c0-.554-.111-1.048-.333-1.483a2.508 2.508 0 0 0-.933-1.029c-.401-.251-.874-.377-1.419-.377-.601 0-1.121.149-1.56.447a2.945 2.945 0 0 0-1.003 1.151c-.235.473-.352.98-.352 1.521v.87c0 .741.128 1.37.384 1.885.26.512.62.902 1.08 1.17.46.264.995.396 1.604.396.397 0 .755-.055 1.074-.166.324-.115.603-.285.838-.511a2.33 2.33 0 0 0 .543-.857l1.457.409a3.224 3.224 0 0 1-.773 1.304c-.362.371-.81.661-1.342.87-.533.204-1.132.306-1.797.306Zm-9.822 0c-.921 0-1.713-.217-2.378-.652-.665-.434-1.176-1.033-1.534-1.796-.358-.762-.537-1.634-.537-2.614 0-.997.183-1.877.55-2.64.37-.767.886-1.366 1.547-1.796.664-.435 1.44-.652 2.326-.652.691 0 1.313.128 1.867.383a3.573 3.573 0 0 1 1.361 1.074c.354.461.573.997.659 1.611h-1.509c-.115-.447-.371-.844-.767-1.189-.392-.349-.92-.524-1.585-.524-.588 0-1.104.153-1.547.46-.439.303-.782.731-1.029 1.285-.243.55-.365 1.195-.365 1.937 0 .758.12 1.419.358 1.981.243.563.584 1 1.023 1.311.443.311.963.466 1.56.466.392 0 .748-.068 1.067-.204.32-.137.59-.333.812-.588.222-.256.379-.563.473-.921h1.509a3.507 3.507 0 0 1-.633 1.566 3.543 3.543 0 0 1-1.323 1.1c-.546.268-1.181.402-1.905.402Zm-9.989 0c-.946 0-1.762-.208-2.448-.626a4.207 4.207 0 0 1-1.579-1.764c-.366-.759-.55-1.641-.55-2.646 0-1.006.184-1.893.55-2.66.371-.771.886-1.372 1.547-1.802.665-.435 1.44-.652 2.327-.652.511 0 1.016.085 1.515.256.498.17.952.447 1.361.831.409.379.735.882.978 1.508s.364 1.398.364 2.314v.639h-7.568v-1.304h6.034c0-.554-.11-1.048-.332-1.483a2.508 2.508 0 0 0-.933-1.029c-.401-.251-.874-.377-1.419-.377-.601 0-1.121.149-1.56.447a2.948 2.948 0 0 0-1.004 1.151c-.234.473-.351.98-.351 1.521v.87c0 .741.128 1.37.383 1.885.26.512.62.902 1.081 1.17.46.264.995.396 1.604.396.396 0 .754-.055 1.074-.166a2.29 2.29 0 0 0 .837-.511c.235-.23.416-.516.544-.857l1.457.409a3.224 3.224 0 0 1-.773 1.304c-.363.371-.81.661-1.343.87-.532.204-1.131.306-1.796.306Zm-10.155-.204v-9.818h1.458v1.483h.102c.179-.486.503-.88.971-1.183a2.868 2.868 0 0 1 1.586-.454 14.017 14.017 0 0 1 .792.026v1.534a4.477 4.477 0 0 0-.351-.058 3.56 3.56 0 0 0-.569-.044c-.477 0-.904.1-1.279.3-.37.196-.664.469-.882.818-.213.345-.319.74-.319 1.183v6.213h-1.509Zm144.543-20.318c-.256 0-.484-.022-.684-.064a1.859 1.859 0 0 1-.416-.115l.384-1.33c.366.094.69.128.971.102a1.16 1.16 0 0 0 .748-.377c.222-.221.424-.581.607-1.08l.282-.767-3.631-9.869h1.636l2.71 7.824h.103l2.71-7.824h1.636l-4.167 11.25c-.188.507-.42.927-.697 1.259a2.612 2.612 0 0 1-.965.748 2.973 2.973 0 0 1-1.227.243Zm-9.208-13.5 2.353 4.014 2.352-4.014h1.738l-3.17 4.909 3.17 4.909h-1.738l-2.352-3.81-2.353 3.81h-1.738l3.119-4.909-3.119-4.909h1.738Zm-7.112 10.022c-.886 0-1.664-.21-2.333-.632-.665-.422-1.185-1.012-1.56-1.771-.371-.758-.556-1.645-.556-2.659 0-1.023.185-1.916.556-2.678.375-.763.895-1.355 1.56-1.777.669-.422 1.447-.633 2.333-.633.886 0 1.662.211 2.327.633.669.422 1.189 1.014 1.559 1.777.375.762.563 1.655.563 2.678 0 1.014-.188 1.901-.563 2.659-.37.759-.89 1.349-1.559 1.771-.665.422-1.441.632-2.327.632Zm0-1.355c.673 0 1.227-.172 1.662-.517.435-.346.756-.799.965-1.362a5.206 5.206 0 0 0 .313-1.828c0-.656-.104-1.268-.313-1.835a3.097 3.097 0 0 0-.965-1.374c-.435-.349-.989-.524-1.662-.524-.673 0-1.227.175-1.662.524-.435.35-.756.808-.965 1.374a5.266 5.266 0 0 0-.313 1.835c0 .656.104 1.266.313 1.828.209.563.53 1.016.965 1.362.435.345.989.517 1.662.517Zm-10.027 1.151v-9.818h1.457v1.483h.103c.178-.486.502-.88.971-1.183a2.865 2.865 0 0 1 1.585-.454 14.025 14.025 0 0 1 .793.026v1.534a4.446 4.446 0 0 0-.352-.058 3.55 3.55 0 0 0-.569-.044c-.477 0-.903.1-1.278.3a2.264 2.264 0 0 0-.882.818c-.213.345-.32.74-.32 1.183v6.213h-1.508Zm-10.609 3.682v-13.5h1.457v1.559h.179c.111-.17.265-.387.461-.652.2-.268.485-.507.856-.716.375-.213.882-.319 1.522-.319.826 0 1.555.207 2.186.62.63.413 1.122.999 1.476 1.758.354.758.531 1.653.531 2.684 0 1.04-.177 1.941-.531 2.704-.354.759-.844 1.347-1.47 1.764-.626.414-1.349.62-2.167.62-.631 0-1.136-.104-1.515-.313-.379-.213-.671-.454-.876-.722a9.992 9.992 0 0 1-.473-.678h-.127v5.191h-1.509Zm1.483-8.591c0 .741.109 1.395.326 1.962.217.563.535 1.004.952 1.323.418.316.929.473 1.535.473.63 0 1.157-.166 1.578-.498.427-.337.746-.789.959-1.355.218-.571.326-1.206.326-1.905 0-.691-.106-1.313-.319-1.867-.209-.558-.527-.999-.953-1.323-.422-.328-.952-.492-1.591-.492-.614 0-1.13.156-1.547.467-.418.306-.733.737-.946 1.291-.213.55-.32 1.191-.32 1.924Zm-8.095-4.909v1.278h-5.088v-1.278h5.088Zm-3.605-2.353h1.509v9.358c0 .427.062.746.185.959.128.209.29.35.486.422.2.068.411.102.633.102.166 0 .302-.008.409-.025l.256-.051.306 1.355a3.211 3.211 0 0 1-.428.115 3.186 3.186 0 0 1-.697.064c-.426 0-.843-.092-1.252-.275a2.482 2.482 0 0 1-1.01-.837c-.265-.375-.397-.848-.397-1.419v-9.768Zm-9.325 6.265v5.906h-1.509v-9.818h1.458v1.534h.127a2.81 2.81 0 0 1 1.049-1.202c.469-.307 1.074-.46 1.815-.46.665 0 1.247.136 1.745.409.499.268.886.678 1.163 1.227.277.546.416 1.236.416 2.071v6.239h-1.509v-6.136c0-.772-.2-1.373-.6-1.803-.401-.435-.951-.652-1.65-.652-.481 0-.911.104-1.291.313a2.242 2.242 0 0 0-.888.914c-.218.401-.326.887-.326 1.458Zm-7.509 6.11c-.946 0-1.762-.208-2.448-.626a4.207 4.207 0 0 1-1.579-1.764c-.366-.759-.55-1.641-.55-2.646 0-1.006.184-1.893.55-2.66.371-.771.887-1.372 1.547-1.802.665-.435 1.44-.652 2.327-.652.511 0 1.016.085 1.515.256.498.17.952.447 1.361.831.409.379.735.882.978 1.508s.364 1.398.364 2.314v.639h-7.568v-1.304h6.034c0-.554-.11-1.048-.332-1.483a2.508 2.508 0 0 0-.933-1.029c-.401-.251-.874-.377-1.419-.377-.601 0-1.121.149-1.56.447a2.937 2.937 0 0 0-1.003 1.151c-.235.473-.352.98-.352 1.521v.87c0 .741.128 1.37.383 1.885.26.512.621.902 1.081 1.17.46.264.995.396 1.604.396.396 0 .754-.055 1.074-.166a2.29 2.29 0 0 0 .837-.511c.235-.23.416-.516.544-.857l1.457.409a3.224 3.224 0 0 1-.773 1.304c-.363.371-.81.661-1.343.87-.532.204-1.131.306-1.796.306Zm-10.155-.204v-9.818h1.458v1.483h.102c.179-.486.503-.88.971-1.183a2.868 2.868 0 0 1 1.586-.454 13.964 13.964 0 0 1 .792.026v1.534a4.477 4.477 0 0 0-.351-.058 3.56 3.56 0 0 0-.569-.044c-.477 0-.904.1-1.279.3-.37.196-.664.469-.882.818-.213.345-.319.74-.319 1.183v6.213h-1.509Zm-6.893.23a3.981 3.981 0 0 1-1.694-.352 2.897 2.897 0 0 1-1.208-1.029c-.298-.451-.448-.997-.448-1.636 0-.563.111-1.018.333-1.368.221-.354.518-.631.888-.831.371-.2.78-.349 1.228-.447.451-.103.905-.184 1.361-.243.597-.077 1.08-.134 1.451-.173.375-.042.648-.113.818-.211.175-.098.262-.268.262-.511v-.051c0-.631-.172-1.121-.517-1.47-.341-.35-.859-.525-1.554-.525-.72 0-1.284.158-1.694.473-.409.316-.696.652-.862 1.01l-1.432-.511c.255-.597.596-1.061 1.022-1.393.431-.337.9-.571 1.407-.704a5.849 5.849 0 0 1 1.508-.204c.316 0 .678.038 1.087.115.413.072.812.224 1.195.454.388.23.71.577.965 1.042.256.464.384 1.086.384 1.866v6.469h-1.509v-1.33h-.076a2.671 2.671 0 0 1-.512.684c-.238.243-.556.45-.952.62-.396.171-.88.256-1.451.256Zm.23-1.355c.597 0 1.099-.117 1.509-.352.413-.234.724-.537.933-.907.213-.371.319-.761.319-1.17v-1.381c-.064.077-.204.147-.422.211-.213.06-.46.113-.741.16a31.625 31.625 0 0 1-1.445.192 5.755 5.755 0 0 0-1.099.249 1.894 1.894 0 0 0-.818.505c-.205.222-.307.524-.307.908 0 .524.194.92.582 1.189.392.264.888.396 1.489.396Zm-13.728 4.807v-13.5h1.457v1.559h.179c.111-.17.264-.387.461-.652.2-.268.485-.507.856-.716.375-.213.882-.319 1.521-.319.827 0 1.556.207 2.186.62.631.413 1.123.999 1.477 1.758.354.758.531 1.653.531 2.684 0 1.04-.177 1.941-.531 2.704-.354.759-.844 1.347-1.47 1.764-.627.414-1.349.62-2.167.62-.631 0-1.136-.104-1.515-.313-.379-.213-.671-.454-.876-.722a9.992 9.992 0 0 1-.473-.678h-.128v5.191h-1.508Zm1.483-8.591c0 .741.109 1.395.326 1.962.217.563.535 1.004.952 1.323.418.316.929.473 1.534.473.631 0 1.157-.166 1.579-.498.426-.337.746-.789.959-1.355a5.325 5.325 0 0 0 .326-1.905c0-.691-.107-1.313-.32-1.867-.208-.558-.526-.999-.952-1.323-.422-.328-.952-.492-1.592-.492-.613 0-1.129.156-1.547.467-.417.306-.732.737-.946 1.291-.213.55-.319 1.191-.319 1.924Zm-3.573-2.71-1.355.383a2.51 2.51 0 0 0-.377-.658 1.82 1.82 0 0 0-.665-.537c-.281-.141-.641-.211-1.08-.211-.601 0-1.102.138-1.502.415-.397.273-.595.62-.595 1.042 0 .375.137.671.409.889.273.217.699.398 1.279.543l1.457.358c.878.213 1.532.539 1.963.978.43.435.645.995.645 1.681 0 .563-.162 1.065-.486 1.509-.319.443-.767.792-1.342 1.048-.575.256-1.244.383-2.007.383-1.002 0-1.83-.217-2.487-.652-.656-.434-1.071-1.069-1.246-1.904l1.432-.358c.136.528.394.924.773 1.189.384.264.884.396 1.502.396.703 0 1.262-.149 1.675-.448.418-.302.626-.664.626-1.086 0-.341-.119-.627-.357-.857-.239-.234-.606-.409-1.1-.524l-1.636-.383c-.899-.213-1.56-.544-1.982-.991-.417-.452-.626-1.016-.626-1.694 0-.554.155-1.044.466-1.47.316-.426.744-.761 1.285-1.004.546-.243 1.164-.364 1.854-.364.971 0 1.734.213 2.288.639.558.426.955.989 1.189 1.688Zm-15.615 1.713v5.906h-1.509v-9.818h1.458v1.534h.128c.23-.499.579-.899 1.048-1.202.469-.307 1.074-.46 1.815-.46.665 0 1.247.136 1.745.409.499.268.887.678 1.164 1.227.277.546.415 1.236.415 2.071v6.239h-1.508v-6.136c0-.772-.201-1.373-.601-1.803-.401-.435-.951-.652-1.649-.652-.482 0-.912.104-1.292.313a2.242 2.242 0 0 0-.888.914c-.217.401-.326.887-.326 1.458ZM279 151.321a3.981 3.981 0 0 1-1.694-.352 2.897 2.897 0 0 1-1.208-1.029c-.298-.451-.447-.997-.447-1.636 0-.563.11-1.018.332-1.368.221-.354.518-.631.888-.831.371-.2.78-.349 1.228-.447.451-.103.905-.184 1.361-.243.597-.077 1.08-.134 1.451-.173.375-.042.648-.113.818-.211.175-.098.262-.268.262-.511v-.051c0-.631-.172-1.121-.517-1.47-.341-.35-.859-.525-1.554-.525-.72 0-1.284.158-1.693.473-.41.316-.697.652-.863 1.01l-1.432-.511c.255-.597.596-1.061 1.022-1.393.431-.337.9-.571 1.407-.704a5.849 5.849 0 0 1 1.508-.204c.316 0 .678.038 1.087.115.413.072.812.224 1.195.454.388.23.71.577.965 1.042.256.464.384 1.086.384 1.866v6.469h-1.509v-1.33h-.076a2.671 2.671 0 0 1-.512.684c-.238.243-.556.45-.952.62-.396.171-.88.256-1.451.256Zm.23-1.355c.597 0 1.099-.117 1.509-.352.413-.234.724-.537.933-.907.213-.371.319-.761.319-1.17v-1.381c-.063.077-.204.147-.421.211-.214.06-.461.113-.742.16a31.625 31.625 0 0 1-1.445.192 5.755 5.755 0 0 0-1.099.249 1.894 1.894 0 0 0-.818.505c-.205.222-.307.524-.307.908 0 .524.194.92.582 1.189.392.264.888.396 1.489.396Zm-9.457 1.125v-9.818h1.458v1.483h.102c.179-.486.503-.88.972-1.183a2.862 2.862 0 0 1 1.585-.454 13.964 13.964 0 0 1 .793.026v1.534a4.628 4.628 0 0 0-.352-.058 3.56 3.56 0 0 0-.569-.044c-.477 0-.903.1-1.278.3a2.264 2.264 0 0 0-.882.818c-.213.345-.32.74-.32 1.183v6.213h-1.509Zm-10.68-11.685V138h9.818v1.406h-4.116v11.685h-1.586v-11.685h-4.116Z" fill="#000"/><path d="M164.621 83.5c0 24.024-19.476 43.5-43.5 43.5s-43.5-19.476-43.5-43.5S97.097 40 121.121 40s43.5 19.476 43.5 43.5Z" fill="#fff"/><path d="M106.828 73.556c0-1.034.835-1.865 1.864-1.865a1.86 1.86 0 0 1 1.865 1.865 1.86 1.86 0 0 1-1.865 1.864 1.862 1.862 0 0 1-1.864-1.864Zm11.187 0a1.86 1.86 0 0 1-1.865 1.864 1.86 1.86 0 0 1-1.864-1.864 1.86 1.86 0 0 1 1.864-1.865 1.86 1.86 0 0 1 1.865 1.865Zm3.729 0a1.86 1.86 0 0 1 1.864-1.865 1.86 1.86 0 0 1 1.865 1.865 1.86 1.86 0 0 1-1.865 1.864 1.86 1.86 0 0 1-1.864-1.864Zm-20.51-2.486a4.972 4.972 0 0 1 4.972-4.972h29.832a4.974 4.974 0 0 1 4.972 4.972v24.86a4.977 4.977 0 0 1-4.972 4.972h-29.832a4.975 4.975 0 0 1-4.972-4.972V71.07Zm2.486 0v24.86a2.485 2.485 0 0 0 2.486 2.486h29.832a2.483 2.483 0 0 0 2.486-2.486V71.07a2.485 2.485 0 0 0-2.486-2.486h-29.832a2.487 2.487 0 0 0-2.486 2.486Zm32.886 104.021V162h1.586v11.685h6.085v1.406h-7.671Zm-11.153 0V162h4.423c1.023 0 1.862.175 2.518.524.657.345 1.142.82 1.458 1.426.315.605.473 1.293.473 2.064 0 .772-.158 1.455-.473 2.052-.316.597-.799 1.065-1.451 1.406-.652.337-1.485.505-2.5.505h-3.579v-1.432h3.528c.699 0 1.262-.102 1.688-.306.43-.205.741-.495.933-.87.196-.379.294-.831.294-1.355s-.098-.982-.294-1.374c-.196-.392-.509-.695-.94-.908-.43-.217-.999-.326-1.706-.326h-2.787v11.685h-1.585Zm6.162-5.881 3.221 5.881h-1.841l-3.17-5.881h1.79ZM121.062 162h1.585v8.668c0 .895-.211 1.694-.633 2.397-.417.698-1.008 1.25-1.77 1.655-.763.401-1.658.601-2.685.601-1.027 0-1.922-.2-2.685-.601a4.482 4.482 0 0 1-1.777-1.655c-.417-.703-.626-1.502-.626-2.397V162h1.585v8.54c0 .639.141 1.208.422 1.706.281.495.682.885 1.202 1.17.524.281 1.15.422 1.879.422.729 0 1.355-.141 1.879-.422a2.966 2.966 0 0 0 1.202-1.17c.281-.498.422-1.067.422-1.706V162Zm-20.392 13.321a3.98 3.98 0 0 1-1.694-.352 2.898 2.898 0 0 1-1.208-1.029c-.298-.451-.447-.997-.447-1.636 0-.563.11-1.018.332-1.368a2.34 2.34 0 0 1 .889-.831c.37-.2.78-.349 1.227-.447.452-.103.906-.184 1.362-.243.596-.077 1.08-.134 1.451-.173.375-.042.647-.113.818-.211.175-.098.262-.268.262-.511v-.051c0-.631-.173-1.121-.518-1.47-.341-.35-.859-.525-1.553-.525-.72 0-1.285.158-1.694.473-.41.316-.697.652-.863 1.01l-1.432-.511c.256-.597.597-1.061 1.023-1.393.43-.337.9-.571 1.406-.704a5.856 5.856 0 0 1 1.509-.204c.315 0 .677.038 1.086.115.414.072.812.224 1.196.454.387.23.709.577.965 1.042.256.464.383 1.086.383 1.866v6.469h-1.508v-1.33h-.077c-.102.213-.273.441-.511.684-.239.243-.556.45-.953.62-.396.171-.88.256-1.451.256Zm.231-1.355c.596 0 1.099-.117 1.508-.352a2.397 2.397 0 0 0 1.253-2.077v-1.381c-.064.077-.205.147-.422.211-.213.06-.46.113-.741.16a31.625 31.625 0 0 1-1.445.192 5.751 5.751 0 0 0-1.1.249 1.9 1.9 0 0 0-.818.505c-.204.222-.306.524-.306.908 0 .524.193.92.581 1.189.392.264.889.396 1.49.396Zm63.379-30.494-1.356.383a2.51 2.51 0 0 0-.377-.658 1.817 1.817 0 0 0-.664-.537c-.282-.141-.642-.211-1.081-.211-.601 0-1.101.138-1.502.415-.396.273-.594.62-.594 1.042 0 .375.136.671.409.889.272.217.699.398 1.278.543l1.458.358c.877.213 1.532.539 1.962.978.43.435.646.995.646 1.681 0 .563-.162 1.065-.486 1.509-.32.443-.767.792-1.343 1.048-.575.256-1.244.383-2.007.383-1.001 0-1.83-.217-2.486-.652-.656-.434-1.072-1.069-1.247-1.904l1.432-.358c.137.528.394.924.774 1.189.383.264.884.396 1.502.396.703 0 1.261-.149 1.674-.448.418-.302.627-.664.627-1.086 0-.341-.119-.627-.358-.857-.239-.234-.605-.409-1.1-.524l-1.636-.383c-.899-.213-1.56-.544-1.981-.991-.418-.452-.627-1.016-.627-1.694 0-.554.156-1.044.467-1.47.315-.426.743-.761 1.285-1.004.545-.243 1.163-.364 1.853-.364.972 0 1.735.213 2.289.639.558.426.954.989 1.189 1.688Zm-12.955 7.823c-.946 0-1.762-.208-2.448-.626a4.207 4.207 0 0 1-1.579-1.764c-.367-.759-.55-1.641-.55-2.646 0-1.006.183-1.893.55-2.66.371-.771.886-1.372 1.547-1.802.665-.435 1.44-.652 2.326-.652.512 0 1.017.085 1.515.256.499.17.953.447 1.362.831.409.379.735.882.978 1.508s.364 1.398.364 2.314v.639h-7.568v-1.304h6.034c0-.554-.111-1.048-.332-1.483a2.522 2.522 0 0 0-.933-1.029c-.401-.251-.874-.377-1.42-.377-.6 0-1.12.149-1.559.447a2.948 2.948 0 0 0-1.004 1.151c-.234.473-.351.98-.351 1.521v.87c0 .741.128 1.37.383 1.885.26.512.62.902 1.08 1.17.461.264.996.396 1.605.396.396 0 .754-.055 1.074-.166a2.29 2.29 0 0 0 .837-.511c.234-.23.416-.516.543-.857l1.458.409a3.226 3.226 0 0 1-.774 1.304 3.764 3.764 0 0 1-1.342.87c-.533.204-1.131.306-1.796.306Zm-14.725 3.478v-13.5h1.457v1.559h.179c.111-.17.264-.387.46-.652.201-.268.486-.507.857-.716.375-.213.882-.319 1.521-.319.827 0 1.555.207 2.186.62.631.413 1.123.999 1.477 1.758.353.758.53 1.653.53 2.684 0 1.04-.177 1.941-.53 2.704-.354.759-.844 1.347-1.47 1.764-.627.414-1.349.62-2.167.62-.631 0-1.136-.104-1.515-.313-.38-.213-.671-.454-.876-.722a9.992 9.992 0 0 1-.473-.678h-.128v5.191H136.6Zm1.483-8.591c0 .741.108 1.395.326 1.962.217.563.534 1.004.952 1.323.418.316.929.473 1.534.473.631 0 1.157-.166 1.579-.498.426-.337.746-.789.959-1.355a5.325 5.325 0 0 0 .326-1.905c0-.691-.107-1.313-.32-1.867-.209-.558-.526-.999-.952-1.323-.422-.328-.953-.492-1.592-.492-.614 0-1.129.156-1.547.467-.417.306-.733.737-.946 1.291-.213.55-.319 1.191-.319 1.924Zm-10.171 8.591c-.256 0-.484-.022-.684-.064a1.875 1.875 0 0 1-.416-.115l.384-1.33c.366.094.69.128.971.102.282-.025.531-.151.748-.377.222-.221.424-.581.608-1.08l.281-.767-3.631-9.869h1.636l2.711 7.824h.102l2.71-7.824h1.637l-4.168 11.25c-.188.507-.42.927-.697 1.259a2.612 2.612 0 0 1-.965.748 2.973 2.973 0 0 1-1.227.243Zm-2.881-13.5v1.278h-5.088v-1.278h5.088Zm-3.605-2.353h1.508v9.358c0 .427.062.746.186.959.128.209.29.35.486.422.2.068.411.102.632.102.167 0 .303-.008.409-.025l.256-.051.307 1.355a3.211 3.211 0 0 1-.428.115 3.2 3.2 0 0 1-.697.064c-.426 0-.844-.092-1.253-.275a2.488 2.488 0 0 1-1.01-.837c-.264-.375-.396-.848-.396-1.419v-9.768Zm-11.705 12.171v-9.818h1.458v1.483h.102c.179-.486.503-.88.972-1.183a2.862 2.862 0 0 1 1.585-.454 13.964 13.964 0 0 1 .792.026v1.534a4.477 4.477 0 0 0-.351-.058 3.56 3.56 0 0 0-.569-.044c-.477 0-.903.1-1.278.3a2.274 2.274 0 0 0-.883.818c-.213.345-.319.74-.319 1.183v6.213h-1.509Zm-6 .204c-.946 0-1.762-.208-2.448-.626a4.205 4.205 0 0 1-1.579-1.764c-.366-.759-.55-1.641-.55-2.646 0-1.006.184-1.893.55-2.66.371-.771.887-1.372 1.547-1.802.665-.435 1.44-.652 2.327-.652.511 0 1.016.085 1.515.256.498.17.952.447 1.361.831.409.379.735.882.978 1.508s.365 1.398.365 2.314v.639h-7.569v-1.304h6.034c0-.554-.11-1.048-.332-1.483a2.508 2.508 0 0 0-.933-1.029c-.401-.251-.874-.377-1.419-.377-.601 0-1.121.149-1.56.447a2.945 2.945 0 0 0-1.003 1.151c-.235.473-.352.98-.352 1.521v.87c0 .741.128 1.37.384 1.885.26.512.62.902 1.08 1.17.46.264.995.396 1.604.396.397 0 .754-.055 1.074-.166a2.29 2.29 0 0 0 .837-.511c.235-.23.416-.516.544-.857l1.457.409a3.224 3.224 0 0 1-.773 1.304c-.362.371-.81.661-1.343.87-.532.204-1.131.306-1.796.306Zm-6.206-7.823-1.355.383a2.513 2.513 0 0 0-.377-.658 1.818 1.818 0 0 0-.665-.537c-.281-.141-.641-.211-1.08-.211-.601 0-1.102.138-1.502.415-.397.273-.595.62-.595 1.042 0 .375.136.671.41.889.272.217.698.398 1.278.543l1.457.358c.878.213 1.532.539 1.962.978.43.435.646.995.646 1.681 0 .563-.162 1.065-.486 1.509-.32.443-.767.792-1.342 1.048-.575.256-1.245.383-2.007.383-1.002 0-1.83-.217-2.487-.652-.656-.434-1.072-1.069-1.246-1.904l1.432-.358c.136.528.394.924.773 1.189.384.264.884.396 1.502.396.703 0 1.261-.149 1.675-.448.418-.302.626-.664.626-1.086 0-.341-.119-.627-.358-.857-.238-.234-.605-.409-1.1-.524l-1.635-.383c-.9-.213-1.56-.544-1.982-.991-.418-.452-.626-1.016-.626-1.694 0-.554.155-1.044.466-1.47.316-.426.744-.761 1.285-1.004.546-.243 1.163-.364 1.854-.364.971 0 1.734.213 2.288.639.558.426.955.989 1.189 1.688ZM86.374 138h1.585v8.668c0 .894-.21 1.694-.633 2.397-.417.698-1.007 1.25-1.77 1.655-.763.401-1.658.601-2.685.601-1.027 0-1.922-.2-2.684-.601a4.483 4.483 0 0 1-1.777-1.655c-.418-.703-.627-1.503-.627-2.397V138h1.585v8.54c0 .639.141 1.208.422 1.706.282.495.682.885 1.202 1.17.524.281 1.15.422 1.88.422.728 0 1.354-.141 1.879-.422a2.964 2.964 0 0 0 1.201-1.17c.282-.498.422-1.067.422-1.706V138Z" fill="#000"/><path fill-rule="evenodd" clip-rule="evenodd" d="M585.374 191.962a1.25 1.25 0 0 0-2.5 0v29.033H345.857c-5.661 0-10.25 4.589-10.25 10.25l.001 7.52h-5.967l7.217 12.5 7.216-12.5h-5.966l-.001-7.52a7.75 7.75 0 0 1 7.75-7.75h237.016v15.27h-5.966l7.216 12.5 7.217-12.5h-5.967V224.93l.001-.023v-32.945Z" fill="#000"/><defs><clipPath id="clip0_381_1010"><path fill="#fff" transform="translate(559.262 57.896)" d="M0 0h49.72v49.72H0z"/></clipPath></defs></svg>