<svg width="770" height="170" viewBox="0 0 770 170" fill="none" xmlns="http://www.w3.org/2000/svg">
<path fill-rule="evenodd" clip-rule="evenodd" d="M314.306 130.059L278.094 75.7409V130.059H262V51.298H280.609L314.809 102.699V51.298H330.903V130.059H314.306ZM340.491 103.302C340.491 87.3086 353.668 75.1374 369.963 75.1374C386.158 75.1374 399.134 87.0068 399.134 103.001C399.134 119.195 385.956 131.266 369.762 131.266C353.466 131.266 340.491 119.497 340.491 103.302ZM356.585 103.101C356.585 111.249 362.519 116.882 369.862 116.882C377.205 116.882 383.039 111.249 383.039 103.101C383.039 95.0538 377.105 89.4209 369.762 89.4209C362.419 89.4209 356.585 95.0538 356.585 103.101ZM437.606 76.3444V91.7344C435.494 91.3321 433.281 91.3321 432.576 91.3321C425.032 91.3321 419.802 96.5627 419.802 106.521V130.059H404.412V76.3444H419.299V84.1903H419.5C422.417 78.0544 427.849 75.7409 433.381 75.7409C434.588 75.7409 436.499 76.0427 437.606 76.3444ZM482.929 130.059V123.219H482.728C477.698 130.562 469.651 131.065 466.03 131.065C450.439 131.065 440.481 117.586 440.481 103.101C440.481 89.5215 450.841 75.3386 466.231 75.3386C469.349 75.3386 476.793 75.9421 482.325 82.4803H482.526V48.1797H498.118V130.059H482.929ZM482.929 103.101C482.929 95.0538 476.994 89.5215 469.651 89.5215C462.308 89.5215 456.374 95.0538 456.374 103.101C456.374 111.249 462.308 116.882 469.651 116.882C476.994 116.882 482.929 111.249 482.929 103.101Z" fill="#151922"/>
<path fill-rule="evenodd" clip-rule="evenodd" d="M574.035 74.0823C574.035 92.4 561.117 101.188 543.753 101.188H530.729V130.412H513.576V47.5059H544.388C561.011 47.5059 574.035 56.5059 574.035 74.0823ZM556.776 74.5059C556.776 66.4588 550 63.7059 542.906 63.7059H530.729V85.2H543.011C549.788 85.2 556.776 82.2353 556.776 74.5059ZM598.811 131.471C588.964 131.471 580.07 125.118 580.07 114.635V114.212C580.07 100.659 593.941 96.847 604.953 96.847H610.458C613.529 96.847 614.906 95.2588 614.906 92.9294C614.906 89.3294 611.941 85.9412 606.011 85.9412C600.929 85.9412 597.117 88.9059 595.847 93.6706L581.341 90.3882C583.247 78.3176 594.894 72.6 606.753 72.6C620.835 72.6 631.106 80.1176 631.106 95.3647V130.412H615.859V123.424L615.647 123.318C611.411 129.353 604.953 131.471 598.811 131.471ZM603.576 119.4C610.882 119.4 614.8 114.212 614.8 108.494V107.224H604.953C601.564 107.224 596.694 109.235 596.694 113.682C596.694 117.706 600.082 119.4 603.576 119.4ZM666.047 131.682C649.423 131.682 643.176 120.988 642.223 114.953L656.623 111.141C657.364 115.271 660.541 118.871 666.047 118.871C670.917 118.871 672.823 116.118 672.823 114C672.823 110.4 669.753 109.341 663.823 108.494C653.129 107.012 643.388 103.412 643.388 90.6C643.388 80.3294 653.764 72.4941 665.729 72.4941C680.447 72.4941 686.906 81.9176 688.07 88.2706L673.776 91.8706C672.929 88.0588 670.282 85.2 665.517 85.2C661.494 85.2 659.059 87.3176 659.059 89.8588C659.059 93.247 661.811 94.2 667.847 94.8353C678.753 96.1059 689.023 99.9176 689.023 112.941C689.023 122.576 681.506 131.682 666.047 131.682ZM721.423 131.682C704.8 131.682 698.553 120.988 697.6 114.953L712 111.141C712.741 115.271 715.917 118.871 721.423 118.871C726.294 118.871 728.2 116.118 728.2 114C728.2 110.4 725.129 109.341 719.2 108.494C708.506 107.012 698.764 103.412 698.764 90.6C698.764 80.3294 709.141 72.4941 721.106 72.4941C735.823 72.4941 742.282 81.9176 743.447 88.2706L729.153 91.8706C728.306 88.0588 725.659 85.2 720.894 85.2C716.87 85.2 714.435 87.3176 714.435 89.8588C714.435 93.247 717.188 94.2 723.223 94.8353C734.129 96.1059 744.4 99.9176 744.4 112.941C744.4 122.576 736.882 131.682 721.423 131.682Z" fill="#151922"/>
<path fill-rule="evenodd" clip-rule="evenodd" d="M20.6435 167.118C8.28717 150.07 1 129.094 1 106.413C1 49.2995 47.2063 3 104.205 3C161.203 3 207.41 49.2995 207.41 106.413C207.41 129.094 200.122 150.07 187.766 167.118L138.197 86.4604L133.41 94.5587L138.267 117.081L104.205 58.6838L83.1338 94.3317L88.0394 117.081L70.1851 86.5066L20.6435 167.118Z" fill="#43A5A1"/>
<path d="M757.494 80.8064C762.662 80.8064 766.844 76.6244 766.844 71.4564C766.844 66.3224 762.662 62.1064 757.494 62.1064C752.326 62.1064 748.178 66.3224 748.178 71.4564C748.178 76.6244 752.326 80.8064 757.494 80.8064ZM757.494 63.8064C761.642 63.8064 765.076 67.2064 765.076 71.4564C765.076 75.7064 761.642 79.1064 757.494 79.1064C753.312 79.1064 749.946 75.7064 749.946 71.4564C749.946 67.2064 753.312 63.8064 757.494 63.8064ZM756.1 72.9524H757.732L759.67 76.7944H762.084L759.874 72.5444C761.064 72.0684 761.914 71.0824 761.914 69.4844C761.914 67.2064 760.18 66.1184 758.106 66.1184H753.89V76.7944H756.1V72.9524ZM759.67 69.5524C759.67 70.5384 758.786 70.8784 757.97 70.8784H756.1V68.2264H757.936C758.786 68.2264 759.67 68.4984 759.67 69.5524Z" fill="#151922"/>
</svg>
